SplineFontDB: 3.2
FontName: Mario64
FullName: Mario64 Regular
FamilyName: Mario64
Weight: Book
Copyright: Copyright sinnyboi 2018
Version: 1.0
ItalicAngle: 0
UnderlinePosition: 307
UnderlineWidth: 204
Ascent: 3276
Descent: 820
InvalidEm: 0
sfntRevision: 0x00010000
LayerCount: 2
Layer: 0 1 "Back" 1
Layer: 1 1 "Fore" 0
XUID: [1021 784 98708059 24648]
StyleMap: 0x0040
FSType: 4
OS2Version: 2
OS2_WeightWidthSlopeOnly: 0
OS2_UseTypoMetrics: 0
CreationTime: 1515966489
ModificationTime: 1737858990
PfmFamily: 81
TTFWeight: 400
TTFWidth: 5
LineGap: 0
VLineGap: 0
Panose: 0 0 4 0 0 0 0 0 0 0
OS2TypoAscent: 3413
OS2TypoAOffset: 0
OS2TypoDescent: -682
OS2TypoDOffset: 0
OS2TypoLinegap: 0
OS2WinAscent: 4096
OS2WinAOffset: 0
OS2WinDescent: 682
OS2WinDOffset: 0
HheadAscent: 4096
HheadAOffset: 0
HheadDescent: -682
HheadDOffset: 0
OS2SubXSize: 2048
OS2SubYSize: 2048
OS2SubXOff: 0
OS2SubYOff: -341
OS2SupXSize: 2048
OS2SupYSize: 2048
OS2SupXOff: 0
OS2SupYOff: 2048
OS2StrikeYSize: 204
OS2StrikeYPos: 819
OS2CapHeight: 3413
OS2XHeight: 2048
OS2Vendor: 'FSTR'
OS2CodePages: 00000001.00000000
OS2UnicodeRanges: 80000001.00000000.00000000.00000000
DEI: 91125
ShortTable: maxp 16
  1
  0
  86
  48
  12
  0
  0
  2
  0
  0
  0
  0
  0
  0
  0
  0
EndShort
LangName: 1033 "" "" "Regular" "FontStruct Mario64" "" "Version 1.0" "" "FontStruct is a trademark of FSI FontShop International GmbH" "http://fontstruct.com/" "sinnyboi" "+IBwA-Mario64+IB0A was built with FontStruct+AAoA" "" "http://fontstruct.com/fontstructions/show/1480248/mario64-1" "FontStruct Non-Commercial License" "" "" "" "" "" "Five big quacking zephyrs jolt my wax bed"
Encoding: UnicodeBmp
UnicodeInterp: none
NameList: AGL For New Fonts
DisplaySize: -48
AntiAlias: 1
FitToEm: 0
WinInfo: 0 16 4
BeginChars: 65539 86

StartChar: .notdef
Encoding: 65536 -1 0
Width: 0
GlyphClass: 1
Flags: W
LayerCount: 2
Fore
SplineSet
1706 484 m 1,0,-1
 1706 1027 l 1,1,-1
 1163 1027 l 1,2,-1
 1163 484 l 1,3,-1
 1706 484 l 1,0,-1
2249 1119 m 1,4,-1
 2249 1662 l 1,5,-1
 1163 1662 l 1,6,-1
 1163 1119 l 1,7,-1
 2249 1119 l 1,4,-1
1706 1750 m 1,8,-1
 1706 2293 l 1,9,-1
 1163 2293 l 1,10,-1
 1163 1750 l 1,11,-1
 1706 1750 l 1,8,-1
2249 2385 m 1,12,-1
 2249 2924 l 1,13,-1
 1706 2924 l 2,14,15
 1481 2924 1481 2924 1324 2767 c 0,16,17
 1163 2607 1163 2607 1163 2385 c 1,18,-1
 2249 2385 l 1,12,-1
0 0 m 1,19,-1
 0 3413 l 1,20,-1
 3413 3413 l 1,21,-1
 3413 0 l 1,22,-1
 0 0 l 1,19,-1
EndSplineSet
EndChar

StartChar: exclam
Encoding: 33 33 4
Width: 1365
GlyphClass: 1
Flags: W
LayerCount: 2
Fore
SplineSet
0 0 m 1,0,-1
 0 682 l 1,1,-1
 682 682 l 1,2,-1
 682 0 l 1,3,-1
 0 0 l 1,0,-1
341 1024 m 1,4,-1
 341 2389 l 1,5,-1
 682 2389 l 1,6,-1
 682 1024 l 1,7,-1
 341 1024 l 1,4,-1
682 2389 m 1,8,-1
 682 3413 l 1,9,-1
 1024 3413 l 1,10,-1
 1024 2389 l 1,11,-1
 682 2389 l 1,8,-1
EndSplineSet
EndChar

StartChar: quotedbl
Encoding: 34 34 5
Width: 2047
GlyphClass: 1
Flags: W
LayerCount: 2
Fore
SplineSet
341 2389 m 1,0,-1
 341 2730 l 1,1,-1
 0 2730 l 1,2,-1
 0 3754 l 1,3,-1
 341 3754 l 1,4,-1
 341 3413 l 1,5,-1
 682 3413 l 1,6,-1
 682 2389 l 1,7,-1
 341 2389 l 1,0,-1
1365 2389 m 1,8,-1
 1365 2730 l 1,9,-1
 1024 2730 l 1,10,-1
 1024 3754 l 1,11,-1
 1365 3754 l 1,12,-1
 1365 3413 l 1,13,-1
 1706 3413 l 1,14,-1
 1706 2389 l 1,15,-1
 1365 2389 l 1,8,-1
EndSplineSet
EndChar

StartChar: dollar
Encoding: 36 36 6
Width: 3072
GlyphClass: 1
Flags: W
LayerCount: 2
Fore
SplineSet
341 341 m 1,0,-1
 341 682 l 1,1,-1
 682 682 l 1,2,-1
 682 341 l 1,3,-1
 341 341 l 1,0,-1
682 0 m 1,4,-1
 682 341 l 1,5,-1
 1024 341 l 1,6,-1
 1024 682 l 1,7,-1
 1365 682 l 1,8,-1
 1365 341 l 1,9,-1
 2048 341 l 1,10,-1
 2048 0 l 1,11,-1
 682 0 l 1,4,-1
2048 341 m 1,12,-1
 2048 682 l 1,13,-1
 2389 682 l 1,14,-1
 2389 341 l 1,15,-1
 2048 341 l 1,12,-1
0 682 m 1,16,-1
 0 2730 l 1,17,-1
 341 2730 l 1,18,-1
 341 682 l 1,19,-1
 0 682 l 1,16,-1
682 682 m 1,20,-1
 682 2730 l 1,21,-1
 1024 2730 l 1,22,-1
 1024 682 l 1,23,-1
 682 682 l 1,20,-1
2389 682 m 1,24,-1
 2389 2730 l 1,25,-1
 2730 2730 l 1,26,-1
 2730 682 l 1,27,-1
 2389 682 l 1,24,-1
341 2730 m 1,28,-1
 341 3072 l 1,29,-1
 682 3072 l 1,30,-1
 682 2730 l 1,31,-1
 341 2730 l 1,28,-1
2048 2730 m 1,32,-1
 2048 3072 l 1,33,-1
 2389 3072 l 1,34,-1
 2389 2730 l 1,35,-1
 2048 2730 l 1,32,-1
1024 2730 m 1,36,-1
 1024 3072 l 1,37,-1
 682 3072 l 1,38,-1
 682 3413 l 1,39,-1
 2048 3413 l 1,40,-1
 2048 3072 l 1,41,-1
 1365 3072 l 1,42,-1
 1365 2730 l 1,43,-1
 1024 2730 l 1,36,-1
EndSplineSet
EndChar

StartChar: ampersand
Encoding: 38 38 7
Width: 3072
GlyphClass: 1
Flags: W
LayerCount: 2
Fore
SplineSet
1435 385 m 1049,0,-1
2389 682 m 1049,1,-1
2023 2205 m 1049,2,-1
2100 2387 m 1049,3,-1
341 341 m 1,4,-1
 341 682 l 1,5,-1
 682 682 l 1,6,-1
 682 341 l 1,7,-1
 341 341 l 1,4,-1
682 0 m 1,8,-1
 682 341 l 1,9,-1
 1024 341 l 1,10,-1
 1024 682 l 1,11,-1
 1365 682 l 1,12,-1
 1365 341 l 1,13,-1
 2048 341 l 1,14,-1
 2048 0 l 1,15,-1
 682 0 l 1,8,-1
2048 341 m 1,16,-1
 2389 341 l 1,17,-1
 2389 682 l 1,18,-1
 2389 341 l 1,19,-1
 2048 341 l 1,16,-1
0 682 m 1,20,-1
 0 2730 l 1,21,-1
 341 2730 l 1,22,-1
 341 682 l 1,23,-1
 0 682 l 1,20,-1
682 682 m 1,24,-1
 682 2730 l 1,25,-1
 1024 2730 l 1,26,-1
 1024 682 l 1,27,-1
 682 682 l 1,24,-1
2389 682 m 1,28,-1
 2389 2730 l 1,29,-1
 2730 2730 l 1,30,-1
 2730 682 l 1,31,-1
 2389 682 l 1,28,-1
341 2730 m 1,32,-1
 341 3072 l 1,33,-1
 682 3072 l 1,34,-1
 682 2730 l 1,35,-1
 341 2730 l 1,32,-1
2048 2730 m 1,36,-1
 2048 3072 l 1,37,-1
 2389 3072 l 1,38,-1
 2389 2730 l 1,39,-1
 2048 2730 l 1,36,-1
1024 2730 m 1,40,-1
 1024 3072 l 1,41,-1
 682 3072 l 1,42,-1
 682 3413 l 1,43,-1
 2048 3413 l 1,44,-1
 2048 3072 l 1,45,-1
 2048 2730 l 1,46,47
 2048 2730 2048 2730 2389 2730 c 1,48,49
 2389 2730 2389 2730 2389 682 c 1,50,51
 2389 682 2389 682 2389 341 c 1,52,-1
 1024 341 l 5,53,54
 1024 341 1024 341 1024 682 c 1,55,-1
 1024 2730 l 1,40,-1
EndSplineSet
EndChar

StartChar: parenleft
Encoding: 40 40 8
Width: 1365
GlyphClass: 1
Flags: W
LayerCount: 2
Fore
SplineSet
682 0 m 1,0,-1
 682 341 l 1,1,-1
 1024 341 l 1,2,-1
 1024 0 l 1,3,-1
 682 0 l 1,0,-1
341 341 m 1,4,-1
 341 682 l 1,5,-1
 682 682 l 1,6,-1
 682 341 l 1,7,-1
 341 341 l 1,4,-1
0 682 m 1,8,-1
 0 3413 l 1,9,-1
 341 3413 l 1,10,-1
 341 682 l 1,11,-1
 0 682 l 1,8,-1
341 3413 m 1,12,-1
 341 3754 l 1,13,-1
 682 3754 l 1,14,-1
 682 3413 l 1,15,-1
 341 3413 l 1,12,-1
682 3754 m 1,16,-1
 682 4096 l 1,17,-1
 1024 4096 l 1,18,-1
 1024 3754 l 1,19,-1
 682 3754 l 1,16,-1
EndSplineSet
EndChar

StartChar: parenright
Encoding: 41 41 9
Width: 1365
GlyphClass: 1
Flags: W
LayerCount: 2
Fore
SplineSet
0 0 m 1,0,-1
 0 341 l 1,1,-1
 341 341 l 1,2,-1
 341 0 l 1,3,-1
 0 0 l 1,0,-1
341 341 m 1,4,-1
 341 682 l 1,5,-1
 682 682 l 1,6,-1
 682 341 l 1,7,-1
 341 341 l 1,4,-1
682 682 m 1,8,-1
 682 3413 l 1,9,-1
 1024 3413 l 1,10,-1
 1024 682 l 1,11,-1
 682 682 l 1,8,-1
341 3413 m 1,12,-1
 341 3754 l 1,13,-1
 682 3754 l 1,14,-1
 682 3413 l 1,15,-1
 341 3413 l 1,12,-1
0 3754 m 1,16,-1
 0 4096 l 1,17,-1
 341 4096 l 1,18,-1
 341 3754 l 1,19,-1
 0 3754 l 1,16,-1
EndSplineSet
EndChar

StartChar: asterisk
Encoding: 42 42 10
Width: 2730
GlyphClass: 1
Flags: W
LayerCount: 2
Fore
SplineSet
0 682 m 1,0,-1
 0 1024 l 1,1,-1
 341 1024 l 1,2,-1
 341 1706 l 1,3,-1
 682 1706 l 1,4,-1
 682 2048 l 1,5,-1
 341 2048 l 1,6,-1
 341 2389 l 1,7,-1
 0 2389 l 1,8,-1
 0 2730 l 1,9,-1
 1024 2730 l 1,10,-1
 1024 3413 l 1,11,-1
 1365 3413 l 1,12,-1
 1365 2730 l 1,13,-1
 2389 2730 l 1,14,-1
 2389 2389 l 1,15,-1
 2048 2389 l 1,16,-1
 2048 2048 l 1,17,-1
 1706 2048 l 1,18,-1
 1706 1706 l 1,19,-1
 2048 1706 l 1,20,-1
 2048 1024 l 1,21,-1
 2389 1024 l 1,22,-1
 2389 682 l 1,23,-1
 1706 682 l 1,24,-1
 1706 1024 l 1,25,-1
 1365 1024 l 1,26,-1
 1365 1365 l 1,27,-1
 1024 1365 l 1,28,-1
 1024 1024 l 1,29,-1
 682 1024 l 1,30,-1
 682 682 l 1,31,-1
 0 682 l 1,0,-1
EndSplineSet
EndChar

StartChar: comma
Encoding: 44 44 11
Width: 1365
GlyphClass: 1
Flags: W
LayerCount: 2
Fore
SplineSet
0 -682 m 1,0,-1
 0 0 l 1,1,-1
 341 0 l 1,2,-1
 341 682 l 1,3,-1
 1024 682 l 1,4,-1
 1024 0 l 1,5,-1
 682 0 l 1,6,-1
 682 -341 l 1,7,-1
 341 -341 l 1,8,-1
 341 -682 l 1,9,-1
 0 -682 l 1,0,-1
EndSplineSet
EndChar

StartChar: hyphen
Encoding: 45 45 12
Width: 1365
GlyphClass: 1
Flags: W
LayerCount: 2
Fore
SplineSet
0 682 m 1,0,-1
 0 1024 l 1,1,-1
 1024 1024 l 1,2,-1
 1024 682 l 1,3,-1
 0 682 l 1,0,-1
EndSplineSet
EndChar

StartChar: period
Encoding: 46 46 13
Width: 1024
GlyphClass: 1
Flags: W
LayerCount: 2
Fore
SplineSet
0 0 m 1,0,-1
 0 682 l 1,1,-1
 682 682 l 1,2,-1
 682 0 l 1,3,-1
 0 0 l 1,0,-1
EndSplineSet
EndChar

StartChar: slash
Encoding: 47 47 14
Width: 1365
GlyphClass: 1
Flags: W
LayerCount: 2
Fore
SplineSet
0 0 m 1,0,-1
 0 1024 l 1,1,-1
 341 1024 l 1,2,-1
 341 0 l 1,3,-1
 0 0 l 1,0,-1
341 1024 m 1,4,-1
 341 2389 l 1,5,-1
 682 2389 l 1,6,-1
 682 1024 l 1,7,-1
 341 1024 l 1,4,-1
682 2389 m 1,8,-1
 682 3413 l 1,9,-1
 1024 3413 l 1,10,-1
 1024 2389 l 1,11,-1
 682 2389 l 1,8,-1
EndSplineSet
EndChar

StartChar: zero
Encoding: 48 48 15
Width: 2389
GlyphClass: 1
Flags: W
LayerCount: 2
Fore
SplineSet
341 0 m 1,0,-1
 341 341 l 1,1,-1
 1365 341 l 1,2,-1
 1365 0 l 1,3,-1
 341 0 l 1,0,-1
1365 341 m 1,4,-1
 1365 682 l 1,5,-1
 1706 682 l 1,6,-1
 1706 341 l 1,7,-1
 1365 341 l 1,4,-1
0 341 m 1,8,-1
 0 2048 l 1,9,-1
 341 2048 l 1,10,-1
 341 341 l 1,11,-1
 0 341 l 1,8,-1
341 2048 m 1,12,-1
 341 2730 l 1,13,-1
 682 2730 l 1,14,-1
 682 2048 l 1,15,-1
 341 2048 l 1,12,-1
682 2730 m 1,16,-1
 682 3072 l 1,17,-1
 1024 3072 l 1,18,-1
 1024 2730 l 1,19,-1
 682 2730 l 1,16,-1
1706 682 m 1,20,-1
 1706 3072 l 1,21,-1
 2048 3072 l 1,22,-1
 2048 682 l 1,23,-1
 1706 682 l 1,20,-1
1024 3072 m 1,24,-1
 1024 3413 l 1,25,-1
 1706 3413 l 1,26,-1
 1706 3072 l 1,27,-1
 1024 3072 l 1,24,-1
EndSplineSet
EndChar

StartChar: one
Encoding: 49 49 16
Width: 1706
GlyphClass: 1
Flags: W
LayerCount: 2
Fore
SplineSet
0 0 m 1,0,-1
 0 341 l 1,1,-1
 341 341 l 1,2,-1
 341 1365 l 1,3,-1
 682 1365 l 1,4,-1
 682 341 l 1,5,-1
 1024 341 l 1,6,-1
 1024 0 l 1,7,-1
 0 0 l 1,0,-1
682 1365 m 1,8,-1
 682 2389 l 1,9,-1
 1024 2389 l 1,10,-1
 1024 1365 l 1,11,-1
 682 1365 l 1,8,-1
341 2730 m 1,12,-1
 341 3072 l 1,13,-1
 682 3072 l 1,14,-1
 682 2730 l 1,15,-1
 341 2730 l 1,12,-1
1024 2389 m 1,16,-1
 1024 3072 l 1,17,-1
 682 3072 l 1,18,-1
 682 3413 l 1,19,-1
 1365 3413 l 1,20,-1
 1365 2389 l 1,21,-1
 1024 2389 l 1,16,-1
EndSplineSet
EndChar

StartChar: two
Encoding: 50 50 17
Width: 2389
GlyphClass: 1
Flags: W
LayerCount: 2
Fore
SplineSet
1706 341 m 1,0,-1
 1706 682 l 1,1,-1
 2048 682 l 1,2,-1
 2048 341 l 1,3,-1
 1706 341 l 1,0,-1
0 0 m 1,4,-1
 0 1024 l 1,5,-1
 341 1024 l 1,6,-1
 341 341 l 1,7,-1
 1706 341 l 1,8,-1
 1706 0 l 1,9,-1
 0 0 l 1,4,-1
341 1024 m 1,10,-1
 341 1365 l 1,11,-1
 682 1365 l 1,12,-1
 682 1024 l 1,13,-1
 341 1024 l 1,10,-1
682 1365 m 1,14,-1
 682 1706 l 1,15,-1
 1365 1706 l 1,16,-1
 1365 1365 l 1,17,-1
 682 1365 l 1,14,-1
1365 1706 m 1,18,-1
 1365 2048 l 1,19,-1
 1706 2048 l 1,20,-1
 1706 1706 l 1,21,-1
 1365 1706 l 1,18,-1
341 2389 m 1,22,-1
 341 2730 l 1,23,-1
 682 2730 l 1,24,-1
 682 2389 l 1,25,-1
 341 2389 l 1,22,-1
682 2730 m 1,26,-1
 682 3072 l 1,27,-1
 1024 3072 l 1,28,-1
 1024 2730 l 1,29,-1
 682 2730 l 1,26,-1
1706 2048 m 1,30,-1
 1706 3072 l 1,31,-1
 2048 3072 l 1,32,-1
 2048 2048 l 1,33,-1
 1706 2048 l 1,30,-1
1024 3072 m 1,34,-1
 1024 3413 l 1,35,-1
 1706 3413 l 1,36,-1
 1706 3072 l 1,37,-1
 1024 3072 l 1,34,-1
EndSplineSet
EndChar

StartChar: three
Encoding: 51 51 18
Width: 2389
GlyphClass: 1
Flags: W
LayerCount: 2
Fore
SplineSet
341 0 m 1,0,-1
 341 341 l 1,1,-1
 1365 341 l 1,2,-1
 1365 0 l 1,3,-1
 341 0 l 1,0,-1
0 341 m 1,4,-1
 0 682 l 1,5,-1
 341 682 l 1,6,-1
 341 341 l 1,7,-1
 0 341 l 1,4,-1
1365 341 m 1,8,-1
 1365 682 l 1,9,-1
 1706 682 l 1,10,-1
 1706 341 l 1,11,-1
 1365 341 l 1,8,-1
1706 682 m 1,12,-1
 1706 1365 l 1,13,-1
 2048 1365 l 1,14,-1
 2048 682 l 1,15,-1
 1706 682 l 1,12,-1
1365 1365 m 1,16,-1
 1365 1706 l 1,17,-1
 1706 1706 l 1,18,-1
 1706 1365 l 1,19,-1
 1365 1365 l 1,16,-1
682 1706 m 1,20,-1
 682 2048 l 1,21,-1
 1365 2048 l 1,22,-1
 1365 1706 l 1,23,-1
 682 1706 l 1,20,-1
1365 2048 m 1,24,-1
 1365 2389 l 1,25,-1
 1706 2389 l 1,26,-1
 1706 2048 l 1,27,-1
 1365 2048 l 1,24,-1
341 2389 m 1,28,-1
 341 2730 l 1,29,-1
 682 2730 l 1,30,-1
 682 2389 l 1,31,-1
 341 2389 l 1,28,-1
682 2730 m 1,32,-1
 682 3072 l 1,33,-1
 1024 3072 l 1,34,-1
 1024 2730 l 1,35,-1
 682 2730 l 1,32,-1
1706 2389 m 1,36,-1
 1706 3072 l 1,37,-1
 2048 3072 l 1,38,-1
 2048 2389 l 1,39,-1
 1706 2389 l 1,36,-1
1024 3072 m 1,40,-1
 1024 3413 l 1,41,-1
 1706 3413 l 1,42,-1
 1706 3072 l 1,43,-1
 1024 3072 l 1,40,-1
EndSplineSet
EndChar

StartChar: four
Encoding: 52 52 19
Width: 2389
GlyphClass: 1
Flags: W
LayerCount: 2
Fore
SplineSet
0 1024 m 1,0,-1
 0 1706 l 1,1,-1
 341 1706 l 1,2,-1
 341 1024 l 1,3,-1
 0 1024 l 1,0,-1
682 0 m 1,4,-1
 682 682 l 1,5,-1
 341 682 l 1,6,-1
 341 1024 l 1,7,-1
 1024 1024 l 1,8,-1
 1024 1706 l 1,9,-1
 1365 1706 l 1,10,-1
 1365 1024 l 1,11,-1
 2048 1024 l 1,12,-1
 2048 682 l 1,13,-1
 1024 682 l 1,14,-1
 1024 0 l 1,15,-1
 682 0 l 1,4,-1
341 1706 m 1,16,-1
 341 2389 l 1,17,-1
 682 2389 l 1,18,-1
 682 1706 l 1,19,-1
 341 1706 l 1,16,-1
1365 1706 m 1,20,-1
 1365 2389 l 1,21,-1
 1706 2389 l 1,22,-1
 1706 1706 l 1,23,-1
 1365 1706 l 1,20,-1
682 2389 m 1,24,-1
 682 2730 l 1,25,-1
 1024 2730 l 1,26,-1
 1024 2389 l 1,27,-1
 682 2389 l 1,24,-1
1024 2730 m 1,28,-1
 1024 3072 l 1,29,-1
 1365 3072 l 1,30,-1
 1365 2730 l 1,31,-1
 1024 2730 l 1,28,-1
1706 2389 m 1,32,-1
 1706 3072 l 1,33,-1
 2048 3072 l 1,34,-1
 2048 2389 l 1,35,-1
 1706 2389 l 1,32,-1
1365 3072 m 1,36,-1
 1365 3413 l 1,37,-1
 1706 3413 l 1,38,-1
 1706 3072 l 1,39,-1
 1365 3072 l 1,36,-1
EndSplineSet
EndChar

StartChar: five
Encoding: 53 53 20
Width: 2389
GlyphClass: 1
Flags: W
LayerCount: 2
Fore
SplineSet
341 0 m 1,0,-1
 341 341 l 1,1,-1
 1365 341 l 1,2,-1
 1365 0 l 1,3,-1
 341 0 l 1,0,-1
0 341 m 1,4,-1
 0 682 l 1,5,-1
 341 682 l 1,6,-1
 341 341 l 1,7,-1
 0 341 l 1,4,-1
1365 341 m 1,8,-1
 1365 682 l 1,9,-1
 1706 682 l 1,10,-1
 1706 341 l 1,11,-1
 1365 341 l 1,8,-1
1706 682 m 1,12,-1
 1706 1365 l 1,13,-1
 2048 1365 l 1,14,-1
 2048 682 l 1,15,-1
 1706 682 l 1,12,-1
1365 1365 m 1,16,-1
 1365 1706 l 1,17,-1
 1706 1706 l 1,18,-1
 1706 1365 l 1,19,-1
 1365 1365 l 1,16,-1
0 1365 m 1,20,-1
 0 2048 l 1,21,-1
 341 2048 l 1,22,-1
 341 1706 l 1,23,-1
 682 1706 l 1,24,-1
 682 1365 l 1,25,-1
 0 1365 l 1,20,-1
682 1706 m 1,26,-1
 682 2048 l 1,27,-1
 1365 2048 l 1,28,-1
 1365 1706 l 1,29,-1
 682 1706 l 1,26,-1
341 2048 m 1,30,-1
 341 2730 l 1,31,-1
 682 2730 l 1,32,-1
 682 2048 l 1,33,-1
 341 2048 l 1,30,-1
682 2730 m 1,34,-1
 682 3413 l 1,35,-1
 2048 3413 l 1,36,-1
 2048 3072 l 1,37,-1
 1024 3072 l 1,38,-1
 1024 2730 l 1,39,-1
 682 2730 l 1,34,-1
EndSplineSet
EndChar

StartChar: six
Encoding: 54 54 21
Width: 2389
GlyphClass: 1
Flags: W
LayerCount: 2
Fore
SplineSet
341 0 m 1,0,-1
 341 341 l 1,1,-1
 1365 341 l 1,2,-1
 1365 0 l 1,3,-1
 341 0 l 1,0,-1
1365 341 m 1,4,-1
 1365 682 l 1,5,-1
 1706 682 l 1,6,-1
 1706 341 l 1,7,-1
 1365 341 l 1,4,-1
1706 682 m 1,8,-1
 1706 1706 l 1,9,-1
 2048 1706 l 1,10,-1
 2048 682 l 1,11,-1
 1706 682 l 1,8,-1
0 341 m 1,12,-1
 0 2048 l 1,13,-1
 341 2048 l 1,14,-1
 341 1706 l 1,15,-1
 682 1706 l 1,16,-1
 682 1365 l 1,17,-1
 341 1365 l 1,18,-1
 341 341 l 1,19,-1
 0 341 l 1,12,-1
682 1706 m 1,20,-1
 682 2048 l 1,21,-1
 1706 2048 l 1,22,-1
 1706 1706 l 1,23,-1
 682 1706 l 1,20,-1
341 2048 m 1,24,-1
 341 2730 l 1,25,-1
 682 2730 l 1,26,-1
 682 2048 l 1,27,-1
 341 2048 l 1,24,-1
682 2730 m 1,28,-1
 682 3072 l 1,29,-1
 1024 3072 l 1,30,-1
 1024 2730 l 1,31,-1
 682 2730 l 1,28,-1
1706 2730 m 1,32,-1
 1706 3072 l 1,33,-1
 2048 3072 l 1,34,-1
 2048 2730 l 1,35,-1
 1706 2730 l 1,32,-1
1024 3072 m 1,36,-1
 1024 3413 l 1,37,-1
 1706 3413 l 1,38,-1
 1706 3072 l 1,39,-1
 1024 3072 l 1,36,-1
EndSplineSet
EndChar

StartChar: seven
Encoding: 55 55 22
Width: 2389
GlyphClass: 1
Flags: W
LayerCount: 2
Fore
SplineSet
0 0 m 1,0,-1
 0 682 l 1,1,-1
 341 682 l 1,2,-1
 341 0 l 1,3,-1
 0 0 l 1,0,-1
341 682 m 1,4,-1
 341 1365 l 1,5,-1
 682 1365 l 1,6,-1
 682 682 l 1,7,-1
 341 682 l 1,4,-1
682 1365 m 1,8,-1
 682 1706 l 1,9,-1
 1024 1706 l 1,10,-1
 1024 1365 l 1,11,-1
 682 1365 l 1,8,-1
1024 1706 m 1,12,-1
 1024 2048 l 1,13,-1
 1365 2048 l 1,14,-1
 1365 1706 l 1,15,-1
 1024 1706 l 1,12,-1
1365 2048 m 1,16,-1
 1365 2389 l 1,17,-1
 1706 2389 l 1,18,-1
 1706 2048 l 1,19,-1
 1365 2048 l 1,16,-1
0 2389 m 1,20,-1
 0 2730 l 1,21,-1
 341 2730 l 1,22,-1
 341 2389 l 1,23,-1
 0 2389 l 1,20,-1
341 2730 m 1,24,-1
 341 3072 l 1,25,-1
 682 3072 l 1,26,-1
 682 2730 l 1,27,-1
 341 2730 l 1,24,-1
1706 2389 m 1,28,-1
 1706 3072 l 1,29,-1
 2048 3072 l 1,30,-1
 2048 2389 l 1,31,-1
 1706 2389 l 1,28,-1
682 3072 m 1,32,-1
 682 3413 l 1,33,-1
 1706 3413 l 1,34,-1
 1706 3072 l 1,35,-1
 682 3072 l 1,32,-1
EndSplineSet
EndChar

StartChar: eight
Encoding: 56 56 23
Width: 2389
GlyphClass: 1
Flags: W
LayerCount: 2
Fore
SplineSet
341 0 m 1,0,-1
 341 341 l 1,1,-1
 1365 341 l 1,2,-1
 1365 0 l 1,3,-1
 341 0 l 1,0,-1
1365 341 m 1,4,-1
 1365 682 l 1,5,-1
 1706 682 l 1,6,-1
 1706 341 l 1,7,-1
 1365 341 l 1,4,-1
0 341 m 1,8,-1
 0 1365 l 1,9,-1
 341 1365 l 1,10,-1
 341 341 l 1,11,-1
 0 341 l 1,8,-1
1706 682 m 1,12,-1
 1706 1365 l 1,13,-1
 2048 1365 l 1,14,-1
 2048 682 l 1,15,-1
 1706 682 l 1,12,-1
341 1365 m 1,16,-1
 341 1706 l 1,17,-1
 682 1706 l 1,18,-1
 682 1365 l 1,19,-1
 341 1365 l 1,16,-1
1365 1365 m 1,20,-1
 1365 1706 l 1,21,-1
 1706 1706 l 1,22,-1
 1706 1365 l 1,23,-1
 1365 1365 l 1,20,-1
682 1706 m 1,24,-1
 682 2048 l 1,25,-1
 1365 2048 l 1,26,-1
 1365 1706 l 1,27,-1
 682 1706 l 1,24,-1
1365 2048 m 1,28,-1
 1365 2389 l 1,29,-1
 1706 2389 l 1,30,-1
 1706 2048 l 1,31,-1
 1365 2048 l 1,28,-1
341 2048 m 1,32,-1
 341 2730 l 1,33,-1
 682 2730 l 1,34,-1
 682 2048 l 1,35,-1
 341 2048 l 1,32,-1
682 2730 m 1,36,-1
 682 3072 l 1,37,-1
 1024 3072 l 1,38,-1
 1024 2730 l 1,39,-1
 682 2730 l 1,36,-1
1706 2389 m 1,40,-1
 1706 3072 l 1,41,-1
 2048 3072 l 1,42,-1
 2048 2389 l 1,43,-1
 1706 2389 l 1,40,-1
1024 3072 m 1,44,-1
 1024 3413 l 1,45,-1
 1706 3413 l 1,46,-1
 1706 3072 l 1,47,-1
 1024 3072 l 1,44,-1
EndSplineSet
EndChar

StartChar: nine
Encoding: 57 57 24
Width: 2389
GlyphClass: 1
Flags: W
LayerCount: 2
Fore
SplineSet
341 0 m 1,0,-1
 341 341 l 1,1,-1
 1365 341 l 1,2,-1
 1365 0 l 1,3,-1
 341 0 l 1,0,-1
0 341 m 1,4,-1
 0 682 l 1,5,-1
 341 682 l 1,6,-1
 341 341 l 1,7,-1
 0 341 l 1,4,-1
1365 341 m 1,8,-1
 1365 682 l 1,9,-1
 1706 682 l 1,10,-1
 1706 341 l 1,11,-1
 1365 341 l 1,8,-1
682 1365 m 1,12,-1
 682 1706 l 1,13,-1
 1365 1706 l 1,14,-1
 1365 1365 l 1,15,-1
 682 1365 l 1,12,-1
341 1706 m 1,16,-1
 341 2730 l 1,17,-1
 682 2730 l 1,18,-1
 682 1706 l 1,19,-1
 341 1706 l 1,16,-1
682 2730 m 1,20,-1
 682 3072 l 1,21,-1
 1024 3072 l 1,22,-1
 1024 2730 l 1,23,-1
 682 2730 l 1,20,-1
1706 682 m 1,24,-1
 1706 1706 l 1,25,-1
 1365 1706 l 1,26,-1
 1365 2048 l 1,27,-1
 1706 2048 l 1,28,-1
 1706 3072 l 1,29,-1
 2048 3072 l 1,30,-1
 2048 682 l 1,31,-1
 1706 682 l 1,24,-1
1024 3072 m 1,32,-1
 1024 3413 l 1,33,-1
 1706 3413 l 1,34,-1
 1706 3072 l 1,35,-1
 1024 3072 l 1,32,-1
EndSplineSet
EndChar

StartChar: colon
Encoding: 58 58 25
Width: 1024
GlyphClass: 1
Flags: W
LayerCount: 2
Fore
SplineSet
0 0 m 1,0,-1
 0 682 l 1,1,-1
 682 682 l 1,2,-1
 682 0 l 1,3,-1
 0 0 l 1,0,-1
0 1706 m 1,4,-1
 0 2389 l 1,5,-1
 682 2389 l 1,6,-1
 682 1706 l 1,7,-1
 0 1706 l 1,4,-1
EndSplineSet
EndChar

StartChar: semicolon
Encoding: 59 59 26
Width: 1365
GlyphClass: 1
Flags: W
LayerCount: 2
Fore
SplineSet
0 -682 m 1,0,-1
 0 0 l 1,1,-1
 341 0 l 1,2,-1
 341 682 l 1,3,-1
 1024 682 l 1,4,-1
 1024 0 l 1,5,-1
 682 0 l 1,6,-1
 682 -341 l 1,7,-1
 341 -341 l 1,8,-1
 341 -682 l 1,9,-1
 0 -682 l 1,0,-1
341 1706 m 1,10,-1
 341 2389 l 1,11,-1
 1024 2389 l 1,12,-1
 1024 1706 l 1,13,-1
 341 1706 l 1,10,-1
EndSplineSet
EndChar

StartChar: question
Encoding: 63 63 27
Width: 2047
GlyphClass: 1
Flags: W
LayerCount: 2
Fore
SplineSet
341 0 m 1,0,-1
 341 682 l 1,1,-1
 1024 682 l 1,2,-1
 1024 0 l 1,3,-1
 341 0 l 1,0,-1
682 1024 m 1,4,-1
 682 1706 l 1,5,-1
 1024 1706 l 1,6,-1
 1024 1024 l 1,7,-1
 682 1024 l 1,4,-1
1024 1706 m 1,8,-1
 1024 2048 l 1,9,-1
 1365 2048 l 1,10,-1
 1365 1706 l 1,11,-1
 1024 1706 l 1,8,-1
0 2048 m 1,12,-1
 0 2730 l 1,13,-1
 341 2730 l 1,14,-1
 341 2048 l 1,15,-1
 0 2048 l 1,12,-1
341 2730 m 1,16,-1
 341 3072 l 1,17,-1
 682 3072 l 1,18,-1
 682 2730 l 1,19,-1
 341 2730 l 1,16,-1
1365 2048 m 1,20,-1
 1365 3072 l 1,21,-1
 1706 3072 l 1,22,-1
 1706 2048 l 1,23,-1
 1365 2048 l 1,20,-1
682 3072 m 1,24,-1
 682 3413 l 1,25,-1
 1365 3413 l 1,26,-1
 1365 3072 l 1,27,-1
 682 3072 l 1,24,-1
EndSplineSet
EndChar

StartChar: A
Encoding: 65 65 28
Width: 2047
GlyphClass: 1
Flags: W
LayerCount: 2
Fore
SplineSet
0 0 m 1,0,-1
 0 1024 l 1,1,-1
 341 1024 l 1,2,-1
 341 0 l 1,3,-1
 0 0 l 1,0,-1
682 2048 m 1,4,-1
 682 2730 l 1,5,-1
 1024 2730 l 1,6,-1
 1024 2048 l 1,7,-1
 682 2048 l 1,4,-1
1365 0 m 1,8,-1
 1365 1024 l 1,9,-1
 341 1024 l 1,10,-1
 341 2048 l 1,11,-1
 682 2048 l 1,12,-1
 682 1365 l 1,13,-1
 1365 1365 l 1,14,-1
 1365 2730 l 1,15,-1
 1024 2730 l 1,16,-1
 1024 3072 l 1,17,-1
 1365 3072 l 1,18,-1
 1365 3413 l 1,19,-1
 1706 3413 l 1,20,-1
 1706 0 l 1,21,-1
 1365 0 l 1,8,-1
EndSplineSet
EndChar

StartChar: B
Encoding: 66 66 29
Width: 2047
GlyphClass: 1
Flags: W
LayerCount: 2
Fore
SplineSet
1024 341 m 1,0,-1
 1024 682 l 1,1,-1
 1365 682 l 1,2,-1
 1365 341 l 1,3,-1
 1024 341 l 1,0,-1
1365 682 m 1,4,-1
 1365 1365 l 1,5,-1
 1706 1365 l 1,6,-1
 1706 682 l 1,7,-1
 1365 682 l 1,4,-1
682 1365 m 1,8,-1
 682 1706 l 1,9,-1
 1024 1706 l 1,10,-1
 1024 2048 l 1,11,-1
 1365 2048 l 1,12,-1
 1365 1365 l 1,13,-1
 682 1365 l 1,8,-1
0 0 m 1,14,-1
 0 2389 l 1,15,-1
 341 2389 l 1,16,-1
 341 341 l 1,17,-1
 1024 341 l 1,18,-1
 1024 0 l 1,19,-1
 0 0 l 1,14,-1
1365 2048 m 1,20,-1
 1365 3072 l 1,21,-1
 1706 3072 l 1,22,-1
 1706 2048 l 1,23,-1
 1365 2048 l 1,20,-1
341 2389 m 1,24,-1
 341 3413 l 1,25,-1
 1365 3413 l 1,26,-1
 1365 3072 l 1,27,-1
 682 3072 l 1,28,-1
 682 2389 l 1,29,-1
 341 2389 l 1,24,-1
EndSplineSet
EndChar

StartChar: C
Encoding: 67 67 30
Width: 2047
GlyphClass: 1
Flags: W
LayerCount: 2
Fore
SplineSet
341 0 m 1,0,-1
 341 341 l 1,1,-1
 1024 341 l 1,2,-1
 1024 0 l 1,3,-1
 341 0 l 1,0,-1
1024 341 m 1,4,-1
 1024 682 l 1,5,-1
 1365 682 l 1,6,-1
 1365 341 l 1,7,-1
 1024 341 l 1,4,-1
1365 682 m 1,8,-1
 1365 1365 l 1,9,-1
 1706 1365 l 1,10,-1
 1706 682 l 1,11,-1
 1365 682 l 1,8,-1
0 341 m 1,12,-1
 0 2389 l 1,13,-1
 341 2389 l 1,14,-1
 341 341 l 1,15,-1
 0 341 l 1,12,-1
341 2389 m 1,16,-1
 341 3072 l 1,17,-1
 682 3072 l 1,18,-1
 682 2389 l 1,19,-1
 341 2389 l 1,16,-1
1365 2730 m 1,20,-1
 1365 3072 l 1,21,-1
 1706 3072 l 1,22,-1
 1706 2730 l 1,23,-1
 1365 2730 l 1,20,-1
682 3072 m 1,24,-1
 682 3413 l 1,25,-1
 1365 3413 l 1,26,-1
 1365 3072 l 1,27,-1
 682 3072 l 1,24,-1
EndSplineSet
EndChar

StartChar: D
Encoding: 68 68 31
Width: 2047
GlyphClass: 1
Flags: W
LayerCount: 2
Fore
SplineSet
682 341 m 1,0,-1
 682 682 l 1,1,-1
 1024 682 l 1,2,-1
 1024 341 l 1,3,-1
 682 341 l 1,0,-1
1024 682 m 1,4,-1
 1024 1024 l 1,5,-1
 1365 1024 l 1,6,-1
 1365 682 l 1,7,-1
 1024 682 l 1,4,-1
0 0 m 1,8,-1
 0 2048 l 1,9,-1
 341 2048 l 1,10,-1
 341 341 l 1,11,-1
 682 341 l 1,12,-1
 682 0 l 1,13,-1
 0 0 l 1,8,-1
1365 1024 m 1,14,-1
 1365 2730 l 1,15,-1
 1706 2730 l 1,16,-1
 1706 1024 l 1,17,-1
 1365 1024 l 1,14,-1
1024 2730 m 1,18,-1
 1024 3072 l 1,19,-1
 1365 3072 l 1,20,-1
 1365 2730 l 1,21,-1
 1024 2730 l 1,18,-1
341 2048 m 1,22,-1
 341 3413 l 1,23,-1
 1024 3413 l 1,24,-1
 1024 3072 l 1,25,-1
 682 3072 l 1,26,-1
 682 2048 l 1,27,-1
 341 2048 l 1,22,-1
EndSplineSet
EndChar

StartChar: E
Encoding: 69 69 32
Width: 2047
GlyphClass: 1
Flags: W
LayerCount: 2
Fore
SplineSet
341 0 m 1,0,-1
 341 341 l 1,1,-1
 1365 341 l 1,2,-1
 1365 0 l 1,3,-1
 341 0 l 1,0,-1
682 1706 m 1,4,-1
 682 2048 l 1,5,-1
 1365 2048 l 1,6,-1
 1365 1706 l 1,7,-1
 682 1706 l 1,4,-1
0 341 m 1,8,-1
 0 2389 l 1,9,-1
 341 2389 l 1,10,-1
 341 1706 l 1,11,-1
 682 1706 l 1,12,-1
 682 1365 l 1,13,-1
 341 1365 l 1,14,-1
 341 341 l 1,15,-1
 0 341 l 1,8,-1
341 2389 m 1,16,-1
 341 3072 l 1,17,-1
 682 3072 l 1,18,-1
 682 2389 l 1,19,-1
 341 2389 l 1,16,-1
682 3072 m 1,20,-1
 682 3413 l 1,21,-1
 1706 3413 l 1,22,-1
 1706 3072 l 1,23,-1
 682 3072 l 1,20,-1
EndSplineSet
EndChar

StartChar: F
Encoding: 70 70 33
Width: 2047
GlyphClass: 1
Flags: W
LayerCount: 2
Fore
SplineSet
682 1706 m 1,0,-1
 682 2048 l 1,1,-1
 1365 2048 l 1,2,-1
 1365 1706 l 1,3,-1
 682 1706 l 1,0,-1
0 0 m 1,4,-1
 0 2389 l 1,5,-1
 341 2389 l 1,6,-1
 341 1706 l 1,7,-1
 682 1706 l 1,8,-1
 682 1365 l 1,9,-1
 341 1365 l 1,10,-1
 341 0 l 1,11,-1
 0 0 l 1,4,-1
341 2389 m 1,12,-1
 341 3072 l 1,13,-1
 682 3072 l 1,14,-1
 682 2389 l 1,15,-1
 341 2389 l 1,12,-1
682 3072 m 1,16,-1
 682 3413 l 1,17,-1
 1706 3413 l 1,18,-1
 1706 3072 l 1,19,-1
 682 3072 l 1,16,-1
EndSplineSet
EndChar

StartChar: G
Encoding: 71 71 34
Width: 2047
GlyphClass: 1
Flags: W
LayerCount: 2
Fore
SplineSet
341 0 m 1,0,-1
 341 341 l 1,1,-1
 1024 341 l 1,2,-1
 1024 0 l 1,3,-1
 341 0 l 1,0,-1
1024 341 m 1,4,-1
 1024 682 l 1,5,-1
 1365 682 l 1,6,-1
 1365 341 l 1,7,-1
 1024 341 l 1,4,-1
682 1365 m 1,8,-1
 682 1706 l 1,9,-1
 1024 1706 l 1,10,-1
 1024 1365 l 1,11,-1
 682 1365 l 1,8,-1
1365 682 m 1,12,-1
 1365 1706 l 1,13,-1
 1024 1706 l 1,14,-1
 1024 2048 l 1,15,-1
 1706 2048 l 1,16,-1
 1706 682 l 1,17,-1
 1365 682 l 1,12,-1
0 341 m 1,18,-1
 0 2389 l 1,19,-1
 341 2389 l 1,20,-1
 341 341 l 1,21,-1
 0 341 l 1,18,-1
341 2389 m 1,22,-1
 341 3072 l 1,23,-1
 682 3072 l 1,24,-1
 682 2389 l 1,25,-1
 341 2389 l 1,22,-1
1365 2730 m 1,26,-1
 1365 3072 l 1,27,-1
 1706 3072 l 1,28,-1
 1706 2730 l 1,29,-1
 1365 2730 l 1,26,-1
682 3072 m 1,30,-1
 682 3413 l 1,31,-1
 1365 3413 l 1,32,-1
 1365 3072 l 1,33,-1
 682 3072 l 1,30,-1
EndSplineSet
EndChar

StartChar: H
Encoding: 72 72 35
Width: 2047
GlyphClass: 1
Flags: W
LayerCount: 2
Fore
SplineSet
1024 0 m 1,0,-1
 1024 682 l 1,1,-1
 1365 682 l 1,2,-1
 1365 0 l 1,3,-1
 1024 0 l 1,0,-1
0 0 m 1,4,-1
 0 2389 l 1,5,-1
 341 2389 l 1,6,-1
 341 1706 l 1,7,-1
 682 1706 l 1,8,-1
 682 1365 l 1,9,-1
 341 1365 l 1,10,-1
 341 0 l 1,11,-1
 0 0 l 1,4,-1
341 2389 m 1,12,-1
 341 3413 l 1,13,-1
 682 3413 l 1,14,-1
 682 2389 l 1,15,-1
 341 2389 l 1,12,-1
1365 682 m 1,16,-1
 1365 1706 l 1,17,-1
 682 1706 l 1,18,-1
 682 2048 l 1,19,-1
 1365 2048 l 1,20,-1
 1365 3413 l 1,21,-1
 1706 3413 l 1,22,-1
 1706 682 l 1,23,-1
 1365 682 l 1,16,-1
EndSplineSet
EndChar

StartChar: I
Encoding: 73 73 36
Width: 1706
GlyphClass: 1
Flags: W
LayerCount: 2
Fore
SplineSet
0 0 m 1,0,-1
 0 341 l 1,1,-1
 341 341 l 1,2,-1
 341 2048 l 1,3,-1
 682 2048 l 1,4,-1
 682 341 l 1,5,-1
 1024 341 l 1,6,-1
 1024 0 l 1,7,-1
 0 0 l 1,0,-1
682 2048 m 1,8,-1
 682 3072 l 1,9,-1
 341 3072 l 1,10,-1
 341 3413 l 1,11,-1
 1365 3413 l 1,12,-1
 1365 3072 l 1,13,-1
 1024 3072 l 1,14,-1
 1024 2048 l 1,15,-1
 682 2048 l 1,8,-1
EndSplineSet
EndChar

StartChar: J
Encoding: 74 74 37
Width: 2047
GlyphClass: 1
Flags: W
LayerCount: 2
Fore
SplineSet
341 0 m 1,0,-1
 341 341 l 1,1,-1
 1024 341 l 1,2,-1
 1024 0 l 1,3,-1
 341 0 l 1,0,-1
0 341 m 1,4,-1
 0 1024 l 1,5,-1
 341 1024 l 1,6,-1
 341 341 l 1,7,-1
 0 341 l 1,4,-1
1024 341 m 1,8,-1
 1024 2048 l 1,9,-1
 1365 2048 l 1,10,-1
 1365 341 l 1,11,-1
 1024 341 l 1,8,-1
1365 2048 m 1,12,-1
 1365 3072 l 1,13,-1
 1024 3072 l 1,14,-1
 1024 3413 l 1,15,-1
 1706 3413 l 1,16,-1
 1706 2048 l 1,17,-1
 1365 2048 l 1,12,-1
EndSplineSet
EndChar

StartChar: K
Encoding: 75 75 38
Width: 2047
GlyphClass: 1
Flags: W
LayerCount: 2
Fore
SplineSet
1365 0 m 1,0,-1
 1365 341 l 1,1,-1
 1706 341 l 1,2,-1
 1706 0 l 1,3,-1
 1365 0 l 1,0,-1
1024 341 m 1,4,-1
 1024 682 l 1,5,-1
 1365 682 l 1,6,-1
 1365 341 l 1,7,-1
 1024 341 l 1,4,-1
682 682 m 1,8,-1
 682 1024 l 1,9,-1
 1024 1024 l 1,10,-1
 1024 682 l 1,11,-1
 682 682 l 1,8,-1
682 1365 m 1,12,-1
 682 2048 l 1,13,-1
 1024 2048 l 1,14,-1
 1024 1365 l 1,15,-1
 682 1365 l 1,12,-1
0 0 m 1,16,-1
 0 2730 l 1,17,-1
 341 2730 l 1,18,-1
 341 1365 l 1,19,-1
 682 1365 l 1,20,-1
 682 1024 l 1,21,-1
 341 1024 l 1,22,-1
 341 0 l 1,23,-1
 0 0 l 1,16,-1
1024 2048 m 1,24,-1
 1024 2730 l 1,25,-1
 1365 2730 l 1,26,-1
 1365 2048 l 1,27,-1
 1024 2048 l 1,24,-1
341 2730 m 1,28,-1
 341 3413 l 1,29,-1
 682 3413 l 1,30,-1
 682 2730 l 1,31,-1
 341 2730 l 1,28,-1
1365 2730 m 1,32,-1
 1365 3413 l 1,33,-1
 1706 3413 l 1,34,-1
 1706 2730 l 1,35,-1
 1365 2730 l 1,32,-1
EndSplineSet
EndChar

StartChar: L
Encoding: 76 76 39
Width: 1706
GlyphClass: 1
Flags: W
LayerCount: 2
Fore
SplineSet
341 0 m 1,0,-1
 341 341 l 1,1,-1
 1365 341 l 1,2,-1
 1365 0 l 1,3,-1
 341 0 l 1,0,-1
0 341 m 1,4,-1
 0 2048 l 1,5,-1
 341 2048 l 1,6,-1
 341 341 l 1,7,-1
 0 341 l 1,4,-1
341 2048 m 1,8,-1
 341 3072 l 1,9,-1
 682 3072 l 1,10,-1
 682 2048 l 1,11,-1
 341 2048 l 1,8,-1
682 3072 m 1,12,-1
 682 3413 l 1,13,-1
 1024 3413 l 1,14,-1
 1024 3072 l 1,15,-1
 682 3072 l 1,12,-1
EndSplineSet
EndChar

StartChar: M
Encoding: 77 77 40
Width: 2730
GlyphClass: 1
Flags: W
LayerCount: 2
Fore
SplineSet
1706 0 m 1,0,-1
 1706 341 l 1,1,-1
 2048 341 l 1,2,-1
 2048 0 l 1,3,-1
 1706 0 l 1,0,-1
0 0 m 1,4,-1
 0 2389 l 1,5,-1
 341 2389 l 1,6,-1
 341 0 l 1,7,-1
 0 0 l 1,4,-1
341 2389 m 1,8,-1
 341 3072 l 1,9,-1
 682 3072 l 1,10,-1
 682 2389 l 1,11,-1
 341 2389 l 1,8,-1
1024 1365 m 1,12,-1
 1024 3072 l 1,13,-1
 1365 3072 l 1,14,-1
 1365 1365 l 1,15,-1
 1024 1365 l 1,12,-1
2048 341 m 1,16,-1
 2048 3072 l 1,17,-1
 2389 3072 l 1,18,-1
 2389 341 l 1,19,-1
 2048 341 l 1,16,-1
682 3072 m 1,20,-1
 682 3413 l 1,21,-1
 1024 3413 l 1,22,-1
 1024 3072 l 1,23,-1
 682 3072 l 1,20,-1
1365 3072 m 1,24,-1
 1365 3413 l 1,25,-1
 2048 3413 l 1,26,-1
 2048 3072 l 1,27,-1
 1365 3072 l 1,24,-1
EndSplineSet
EndChar

StartChar: N
Encoding: 78 78 41
Width: 2730
GlyphClass: 1
Flags: W
LayerCount: 2
Fore
SplineSet
1706 0 m 1,0,-1
 1706 341 l 1,1,-1
 2048 341 l 1,2,-1
 2048 0 l 1,3,-1
 1706 0 l 1,0,-1
1365 341 m 1,4,-1
 1365 1365 l 1,5,-1
 1706 1365 l 1,6,-1
 1706 341 l 1,7,-1
 1365 341 l 1,4,-1
0 0 m 1,8,-1
 0 2048 l 1,9,-1
 341 2048 l 1,10,-1
 341 0 l 1,11,-1
 0 0 l 1,8,-1
341 2048 m 1,12,-1
 341 3072 l 1,13,-1
 682 3072 l 1,14,-1
 682 2048 l 1,15,-1
 341 2048 l 1,12,-1
1024 1365 m 1,16,-1
 1024 3072 l 1,17,-1
 1365 3072 l 1,18,-1
 1365 1365 l 1,19,-1
 1024 1365 l 1,16,-1
682 3072 m 1,20,-1
 682 3413 l 1,21,-1
 1024 3413 l 1,22,-1
 1024 3072 l 1,23,-1
 682 3072 l 1,20,-1
2048 341 m 1,24,-1
 2048 3413 l 1,25,-1
 2389 3413 l 1,26,-1
 2389 341 l 1,27,-1
 2048 341 l 1,24,-1
EndSplineSet
EndChar

StartChar: O
Encoding: 79 79 42
Width: 2047
GlyphClass: 1
Flags: W
LayerCount: 2
Fore
SplineSet
341 0 m 1,0,-1
 341 341 l 1,1,-1
 1024 341 l 1,2,-1
 1024 0 l 1,3,-1
 341 0 l 1,0,-1
1024 341 m 1,4,-1
 1024 682 l 1,5,-1
 1365 682 l 1,6,-1
 1365 341 l 1,7,-1
 1024 341 l 1,4,-1
0 341 m 1,8,-1
 0 2389 l 1,9,-1
 341 2389 l 1,10,-1
 341 341 l 1,11,-1
 0 341 l 1,8,-1
341 2389 m 1,12,-1
 341 3072 l 1,13,-1
 682 3072 l 1,14,-1
 682 2389 l 1,15,-1
 341 2389 l 1,12,-1
1365 682 m 1,16,-1
 1365 3072 l 1,17,-1
 1706 3072 l 1,18,-1
 1706 682 l 1,19,-1
 1365 682 l 1,16,-1
682 3072 m 1,20,-1
 682 3413 l 1,21,-1
 1365 3413 l 1,22,-1
 1365 3072 l 1,23,-1
 682 3072 l 1,20,-1
EndSplineSet
EndChar

StartChar: P
Encoding: 80 80 43
Width: 2047
GlyphClass: 1
Flags: W
LayerCount: 2
Fore
SplineSet
1024 1706 m 1,0,-1
 1024 2048 l 1,1,-1
 1365 2048 l 1,2,-1
 1365 1706 l 1,3,-1
 1024 1706 l 1,0,-1
0 0 m 1,4,-1
 0 2389 l 1,5,-1
 341 2389 l 1,6,-1
 341 1706 l 1,7,-1
 1024 1706 l 1,8,-1
 1024 1365 l 1,9,-1
 341 1365 l 1,10,-1
 341 0 l 1,11,-1
 0 0 l 1,4,-1
341 2389 m 1,12,-1
 341 3072 l 1,13,-1
 682 3072 l 1,14,-1
 682 2389 l 1,15,-1
 341 2389 l 1,12,-1
1365 2048 m 1,16,-1
 1365 3072 l 1,17,-1
 1706 3072 l 1,18,-1
 1706 2048 l 1,19,-1
 1365 2048 l 1,16,-1
682 3072 m 1,20,-1
 682 3413 l 1,21,-1
 1365 3413 l 1,22,-1
 1365 3072 l 1,23,-1
 682 3072 l 1,20,-1
EndSplineSet
EndChar

StartChar: Q
Encoding: 81 81 44
Width: 2047
GlyphClass: 1
Flags: W
LayerCount: 2
Fore
SplineSet
341 0 m 1,0,-1
 341 341 l 1,1,-1
 1024 341 l 1,2,-1
 1024 0 l 1,3,-1
 341 0 l 1,0,-1
1365 0 m 1,4,-1
 1365 341 l 1,5,-1
 1706 341 l 1,6,-1
 1706 0 l 1,7,-1
 1365 0 l 1,4,-1
1024 341 m 1,8,-1
 1024 682 l 1,9,-1
 1365 682 l 1,10,-1
 1365 341 l 1,11,-1
 1024 341 l 1,8,-1
682 682 m 1,12,-1
 682 1024 l 1,13,-1
 1024 1024 l 1,14,-1
 1024 682 l 1,15,-1
 682 682 l 1,12,-1
0 341 m 1,16,-1
 0 2389 l 1,17,-1
 341 2389 l 1,18,-1
 341 341 l 1,19,-1
 0 341 l 1,16,-1
341 2389 m 1,20,-1
 341 3072 l 1,21,-1
 682 3072 l 1,22,-1
 682 2389 l 1,23,-1
 341 2389 l 1,20,-1
1365 682 m 1,24,-1
 1365 3072 l 1,25,-1
 1706 3072 l 1,26,-1
 1706 682 l 1,27,-1
 1365 682 l 1,24,-1
682 3072 m 1,28,-1
 682 3413 l 1,29,-1
 1365 3413 l 1,30,-1
 1365 3072 l 1,31,-1
 682 3072 l 1,28,-1
EndSplineSet
EndChar

StartChar: R
Encoding: 82 82 45
Width: 2047
GlyphClass: 1
Flags: W
LayerCount: 2
Fore
SplineSet
1365 0 m 1,0,-1
 1365 341 l 1,1,-1
 1706 341 l 1,2,-1
 1706 0 l 1,3,-1
 1365 0 l 1,0,-1
1024 341 m 1,4,-1
 1024 1024 l 1,5,-1
 1365 1024 l 1,6,-1
 1365 341 l 1,7,-1
 1024 341 l 1,4,-1
1024 1706 m 1,8,-1
 1024 2048 l 1,9,-1
 1365 2048 l 1,10,-1
 1365 1706 l 1,11,-1
 1024 1706 l 1,8,-1
0 0 m 1,12,-1
 0 2389 l 1,13,-1
 341 2389 l 1,14,-1
 341 1706 l 1,15,-1
 1024 1706 l 1,16,-1
 1024 1024 l 1,17,-1
 682 1024 l 1,18,-1
 682 1365 l 1,19,-1
 341 1365 l 1,20,-1
 341 0 l 1,21,-1
 0 0 l 1,12,-1
341 2389 m 1,22,-1
 341 3072 l 1,23,-1
 682 3072 l 1,24,-1
 682 2389 l 1,25,-1
 341 2389 l 1,22,-1
1365 2048 m 1,26,-1
 1365 3072 l 1,27,-1
 1706 3072 l 1,28,-1
 1706 2048 l 1,29,-1
 1365 2048 l 1,26,-1
682 3072 m 1,30,-1
 682 3413 l 1,31,-1
 1365 3413 l 1,32,-1
 1365 3072 l 1,33,-1
 682 3072 l 1,30,-1
EndSplineSet
EndChar

StartChar: S
Encoding: 83 83 46
Width: 2047
GlyphClass: 1
Flags: W
LayerCount: 2
Fore
SplineSet
341 0 m 1,0,-1
 341 341 l 1,1,-1
 1024 341 l 1,2,-1
 1024 0 l 1,3,-1
 341 0 l 1,0,-1
0 341 m 1,4,-1
 0 682 l 1,5,-1
 341 682 l 1,6,-1
 341 341 l 1,7,-1
 0 341 l 1,4,-1
1024 341 m 1,8,-1
 1024 682 l 1,9,-1
 1365 682 l 1,10,-1
 1365 341 l 1,11,-1
 1024 341 l 1,8,-1
1365 682 m 1,12,-1
 1365 1365 l 1,13,-1
 1706 1365 l 1,14,-1
 1706 682 l 1,15,-1
 1365 682 l 1,12,-1
1024 1365 m 1,16,-1
 1024 1706 l 1,17,-1
 1365 1706 l 1,18,-1
 1365 1365 l 1,19,-1
 1024 1365 l 1,16,-1
682 1706 m 1,20,-1
 682 2048 l 1,21,-1
 1024 2048 l 1,22,-1
 1024 1706 l 1,23,-1
 682 1706 l 1,20,-1
341 2048 m 1,24,-1
 341 2730 l 1,25,-1
 682 2730 l 1,26,-1
 682 2048 l 1,27,-1
 341 2048 l 1,24,-1
682 2730 m 1,28,-1
 682 3072 l 1,29,-1
 1024 3072 l 1,30,-1
 1024 2730 l 1,31,-1
 682 2730 l 1,28,-1
1365 2730 m 1,32,-1
 1365 3072 l 1,33,-1
 1706 3072 l 1,34,-1
 1706 2730 l 1,35,-1
 1365 2730 l 1,32,-1
1024 3072 m 1,36,-1
 1024 3413 l 1,37,-1
 1365 3413 l 1,38,-1
 1365 3072 l 1,39,-1
 1024 3072 l 1,36,-1
EndSplineSet
EndChar

StartChar: T
Encoding: 84 84 47
Width: 2047
GlyphClass: 1
Flags: W
LayerCount: 2
Fore
SplineSet
341 0 m 1,0,-1
 341 2048 l 1,1,-1
 682 2048 l 1,2,-1
 682 0 l 1,3,-1
 341 0 l 1,0,-1
682 2048 m 1,4,-1
 682 3072 l 1,5,-1
 0 3072 l 1,6,-1
 0 3413 l 1,7,-1
 1706 3413 l 1,8,-1
 1706 3072 l 1,9,-1
 1024 3072 l 1,10,-1
 1024 2048 l 1,11,-1
 682 2048 l 1,4,-1
EndSplineSet
EndChar

StartChar: U
Encoding: 85 85 48
Width: 2047
GlyphClass: 1
Flags: W
LayerCount: 2
Fore
SplineSet
341 0 m 1,0,-1
 341 341 l 1,1,-1
 1024 341 l 1,2,-1
 1024 0 l 1,3,-1
 341 0 l 1,0,-1
1024 341 m 1,4,-1
 1024 682 l 1,5,-1
 1365 682 l 1,6,-1
 1365 341 l 1,7,-1
 1024 341 l 1,4,-1
0 341 m 1,8,-1
 0 2389 l 1,9,-1
 341 2389 l 1,10,-1
 341 341 l 1,11,-1
 0 341 l 1,8,-1
341 2389 m 1,12,-1
 341 3413 l 1,13,-1
 682 3413 l 1,14,-1
 682 2389 l 1,15,-1
 341 2389 l 1,12,-1
1365 682 m 1,16,-1
 1365 3413 l 1,17,-1
 1706 3413 l 1,18,-1
 1706 682 l 1,19,-1
 1365 682 l 1,16,-1
EndSplineSet
EndChar

StartChar: V
Encoding: 86 86 49
Width: 2047
GlyphClass: 1
Flags: W
LayerCount: 2
Fore
SplineSet
682 1024 m 1,0,-1
 682 1706 l 1,1,-1
 1024 1706 l 1,2,-1
 1024 1024 l 1,3,-1
 682 1024 l 1,0,-1
0 0 m 1,4,-1
 0 2389 l 1,5,-1
 341 2389 l 1,6,-1
 341 1024 l 1,7,-1
 682 1024 l 1,8,-1
 682 341 l 1,9,-1
 341 341 l 1,10,-1
 341 0 l 1,11,-1
 0 0 l 1,4,-1
1024 1706 m 1,12,-1
 1024 2389 l 1,13,-1
 1365 2389 l 1,14,-1
 1365 1706 l 1,15,-1
 1024 1706 l 1,12,-1
341 2389 m 1,16,-1
 341 3413 l 1,17,-1
 682 3413 l 1,18,-1
 682 2389 l 1,19,-1
 341 2389 l 1,16,-1
1365 2389 m 1,20,-1
 1365 3413 l 1,21,-1
 1706 3413 l 1,22,-1
 1706 2389 l 1,23,-1
 1365 2389 l 1,20,-1
EndSplineSet
EndChar

StartChar: W
Encoding: 87 87 50
Width: 2730
GlyphClass: 1
Flags: W
LayerCount: 2
Fore
SplineSet
341 0 m 1,0,-1
 341 341 l 1,1,-1
 682 341 l 1,2,-1
 682 0 l 1,3,-1
 341 0 l 1,0,-1
1706 0 m 1,4,-1
 1706 341 l 1,5,-1
 2048 341 l 1,6,-1
 2048 0 l 1,7,-1
 1706 0 l 1,4,-1
682 341 m 1,8,-1
 682 682 l 1,9,-1
 1024 682 l 1,10,-1
 1024 341 l 1,11,-1
 682 341 l 1,8,-1
1365 341 m 1,12,-1
 1365 682 l 1,13,-1
 1706 682 l 1,14,-1
 1706 341 l 1,15,-1
 1365 341 l 1,12,-1
1024 682 m 1,16,-1
 1024 2048 l 1,17,-1
 1365 2048 l 1,18,-1
 1365 682 l 1,19,-1
 1024 682 l 1,16,-1
0 341 m 1,20,-1
 0 2389 l 1,21,-1
 341 2389 l 1,22,-1
 341 341 l 1,23,-1
 0 341 l 1,20,-1
341 2389 m 1,24,-1
 341 3072 l 1,25,-1
 682 3072 l 1,26,-1
 682 2389 l 1,27,-1
 341 2389 l 1,24,-1
682 3072 m 1,28,-1
 682 3413 l 1,29,-1
 1024 3413 l 1,30,-1
 1024 3072 l 1,31,-1
 682 3072 l 1,28,-1
2048 341 m 1,32,-1
 2048 3413 l 1,33,-1
 2389 3413 l 1,34,-1
 2389 341 l 1,35,-1
 2048 341 l 1,32,-1
EndSplineSet
EndChar

StartChar: X
Encoding: 88 88 51
Width: 2389
GlyphClass: 1
Flags: W
LayerCount: 2
Fore
SplineSet
1365 0 m 1,0,-1
 1365 341 l 1,1,-1
 2048 341 l 1,2,-1
 2048 0 l 1,3,-1
 1365 0 l 1,0,-1
0 0 m 1,4,-1
 0 682 l 1,5,-1
 341 682 l 1,6,-1
 341 0 l 1,7,-1
 0 0 l 1,4,-1
341 682 m 1,8,-1
 341 1365 l 1,9,-1
 682 1365 l 1,10,-1
 682 682 l 1,11,-1
 341 682 l 1,8,-1
1024 341 m 1,12,-1
 1024 1365 l 1,13,-1
 682 1365 l 1,14,-1
 682 1706 l 1,15,-1
 1024 1706 l 1,16,-1
 1024 2048 l 1,17,-1
 1365 2048 l 1,18,-1
 1365 341 l 1,19,-1
 1024 341 l 1,12,-1
682 2048 m 1,20,-1
 682 3072 l 1,21,-1
 1024 3072 l 1,22,-1
 1024 2048 l 1,23,-1
 682 2048 l 1,20,-1
1365 2048 m 1,24,-1
 1365 3072 l 1,25,-1
 1706 3072 l 1,26,-1
 1706 2048 l 1,27,-1
 1365 2048 l 1,24,-1
341 3072 m 1,28,-1
 341 3413 l 1,29,-1
 682 3413 l 1,30,-1
 682 3072 l 1,31,-1
 341 3072 l 1,28,-1
1706 3072 m 1,32,-1
 1706 3413 l 1,33,-1
 2048 3413 l 1,34,-1
 2048 3072 l 1,35,-1
 1706 3072 l 1,32,-1
EndSplineSet
EndChar

StartChar: Y
Encoding: 89 89 52
Width: 2047
GlyphClass: 1
Flags: W
LayerCount: 2
Fore
SplineSet
341 0 m 1,0,-1
 341 1706 l 1,1,-1
 682 1706 l 1,2,-1
 682 0 l 1,3,-1
 341 0 l 1,0,-1
682 1706 m 1,4,-1
 682 2048 l 1,5,-1
 1024 2048 l 1,6,-1
 1024 1706 l 1,7,-1
 682 1706 l 1,4,-1
1024 2048 m 1,8,-1
 1024 2730 l 1,9,-1
 1365 2730 l 1,10,-1
 1365 2048 l 1,11,-1
 1024 2048 l 1,8,-1
0 1706 m 1,12,-1
 0 3413 l 1,13,-1
 341 3413 l 1,14,-1
 341 1706 l 1,15,-1
 0 1706 l 1,12,-1
1365 2730 m 1,16,-1
 1365 3413 l 1,17,-1
 1706 3413 l 1,18,-1
 1706 2730 l 1,19,-1
 1365 2730 l 1,16,-1
EndSplineSet
EndChar

StartChar: Z
Encoding: 90 90 53
Width: 2047
GlyphClass: 1
Flags: W
LayerCount: 2
Fore
SplineSet
341 0 m 1,0,-1
 341 341 l 1,1,-1
 1024 341 l 1,2,-1
 1024 0 l 1,3,-1
 341 0 l 1,0,-1
1024 341 m 1,4,-1
 1024 682 l 1,5,-1
 1706 682 l 1,6,-1
 1706 341 l 1,7,-1
 1024 341 l 1,4,-1
0 341 m 1,8,-1
 0 1024 l 1,9,-1
 341 1024 l 1,10,-1
 341 341 l 1,11,-1
 0 341 l 1,8,-1
341 1024 m 1,12,-1
 341 1706 l 1,13,-1
 682 1706 l 1,14,-1
 682 1024 l 1,15,-1
 341 1024 l 1,12,-1
682 1706 m 1,16,-1
 682 2389 l 1,17,-1
 1024 2389 l 1,18,-1
 1024 1706 l 1,19,-1
 682 1706 l 1,16,-1
1024 2389 m 1,20,-1
 1024 2730 l 1,21,-1
 1365 2730 l 1,22,-1
 1365 2389 l 1,23,-1
 1024 2389 l 1,20,-1
0 2730 m 1,24,-1
 0 3072 l 1,25,-1
 341 3072 l 1,26,-1
 341 2730 l 1,27,-1
 0 2730 l 1,24,-1
1365 2730 m 1,28,-1
 1365 3072 l 1,29,-1
 1706 3072 l 1,30,-1
 1706 2730 l 1,31,-1
 1365 2730 l 1,28,-1
341 3072 m 1,32,-1
 341 3413 l 1,33,-1
 1365 3413 l 1,34,-1
 1365 3072 l 1,35,-1
 341 3072 l 1,32,-1
EndSplineSet
EndChar

StartChar: backslash
Encoding: 92 92 54
Width: 1365
GlyphClass: 1
Flags: W
LayerCount: 2
Fore
SplineSet
682 0 m 1,0,-1
 682 1024 l 1,1,-1
 1024 1024 l 1,2,-1
 1024 0 l 1,3,-1
 682 0 l 1,0,-1
341 1024 m 1,4,-1
 341 2389 l 1,5,-1
 682 2389 l 1,6,-1
 682 1024 l 1,7,-1
 341 1024 l 1,4,-1
0 2389 m 1,8,-1
 0 3413 l 1,9,-1
 341 3413 l 1,10,-1
 341 2389 l 1,11,-1
 0 2389 l 1,8,-1
EndSplineSet
EndChar

StartChar: underscore
Encoding: 95 95 55
Width: 1706
GlyphClass: 1
Flags: W
LayerCount: 2
Fore
SplineSet
0 0 m 1,0,-1
 0 341 l 1,1,-1
 1365 341 l 1,2,-1
 1365 0 l 1,3,-1
 0 0 l 1,0,-1
EndSplineSet
EndChar

StartChar: a
Encoding: 97 97 56
Width: 2047
GlyphClass: 1
Flags: W
LayerCount: 2
Fore
SplineSet
341 0 m 1,0,-1
 341 341 l 1,1,-1
 682 341 l 1,2,-1
 682 0 l 1,3,-1
 341 0 l 1,0,-1
0 341 m 1,4,-1
 0 1365 l 1,5,-1
 341 1365 l 1,6,-1
 341 341 l 1,7,-1
 0 341 l 1,4,-1
341 1365 m 1,8,-1
 341 1706 l 1,9,-1
 682 1706 l 1,10,-1
 682 1365 l 1,11,-1
 341 1365 l 1,8,-1
1024 0 m 1,12,-1
 1024 341 l 1,13,-1
 682 341 l 1,14,-1
 682 682 l 1,15,-1
 1024 682 l 1,16,-1
 1024 1706 l 1,17,-1
 1365 1706 l 1,18,-1
 1365 341 l 1,19,-1
 1706 341 l 1,20,-1
 1706 0 l 1,21,-1
 1024 0 l 1,12,-1
682 1706 m 1,22,-1
 682 2048 l 1,23,-1
 1024 2048 l 1,24,-1
 1024 1706 l 1,25,-1
 682 1706 l 1,22,-1
EndSplineSet
EndChar

StartChar: b
Encoding: 98 98 57
Width: 1706
GlyphClass: 1
Flags: W
LayerCount: 2
Fore
SplineSet
341 0 m 1,0,-1
 341 341 l 1,1,-1
 682 341 l 1,2,-1
 682 0 l 1,3,-1
 341 0 l 1,0,-1
682 341 m 1,4,-1
 682 682 l 1,5,-1
 1024 682 l 1,6,-1
 1024 341 l 1,7,-1
 682 341 l 1,4,-1
1024 682 m 1,8,-1
 1024 1706 l 1,9,-1
 1365 1706 l 1,10,-1
 1365 682 l 1,11,-1
 1024 682 l 1,8,-1
682 1706 m 1,12,-1
 682 2048 l 1,13,-1
 1024 2048 l 1,14,-1
 1024 1706 l 1,15,-1
 682 1706 l 1,12,-1
0 341 m 1,16,-1
 0 2389 l 1,17,-1
 341 2389 l 1,18,-1
 341 1706 l 1,19,-1
 682 1706 l 1,20,-1
 682 1365 l 1,21,-1
 341 1365 l 1,22,-1
 341 341 l 1,23,-1
 0 341 l 1,16,-1
341 2389 m 1,24,-1
 341 3072 l 1,25,-1
 682 3072 l 1,26,-1
 682 2389 l 1,27,-1
 341 2389 l 1,24,-1
682 3072 m 1,28,-1
 682 3413 l 1,29,-1
 1024 3413 l 1,30,-1
 1024 3072 l 1,31,-1
 682 3072 l 1,28,-1
EndSplineSet
EndChar

StartChar: c
Encoding: 99 99 58
Width: 1706
GlyphClass: 1
Flags: W
LayerCount: 2
Fore
SplineSet
341 0 m 1,0,-1
 341 341 l 1,1,-1
 1024 341 l 1,2,-1
 1024 0 l 1,3,-1
 341 0 l 1,0,-1
1024 341 m 1,4,-1
 1024 682 l 1,5,-1
 1365 682 l 1,6,-1
 1365 341 l 1,7,-1
 1024 341 l 1,4,-1
0 341 m 1,8,-1
 0 1365 l 1,9,-1
 341 1365 l 1,10,-1
 341 341 l 1,11,-1
 0 341 l 1,8,-1
341 1365 m 1,12,-1
 341 1706 l 1,13,-1
 682 1706 l 1,14,-1
 682 1365 l 1,15,-1
 341 1365 l 1,12,-1
1024 1365 m 1,16,-1
 1024 1706 l 1,17,-1
 1365 1706 l 1,18,-1
 1365 1365 l 1,19,-1
 1024 1365 l 1,16,-1
682 1706 m 1,20,-1
 682 2048 l 1,21,-1
 1024 2048 l 1,22,-1
 1024 1706 l 1,23,-1
 682 1706 l 1,20,-1
EndSplineSet
EndChar

StartChar: d
Encoding: 100 100 59
Width: 2047
GlyphClass: 1
Flags: W
LayerCount: 2
Fore
SplineSet
341 0 m 1,0,-1
 341 341 l 1,1,-1
 682 341 l 1,2,-1
 682 0 l 1,3,-1
 341 0 l 1,0,-1
0 341 m 1,4,-1
 0 1365 l 1,5,-1
 341 1365 l 1,6,-1
 341 341 l 1,7,-1
 0 341 l 1,4,-1
341 1365 m 1,8,-1
 341 1706 l 1,9,-1
 682 1706 l 1,10,-1
 682 1365 l 1,11,-1
 341 1365 l 1,8,-1
1024 0 m 1,12,-1
 1024 341 l 1,13,-1
 682 341 l 1,14,-1
 682 682 l 1,15,-1
 1024 682 l 1,16,-1
 1024 1706 l 1,17,-1
 682 1706 l 1,18,-1
 682 2048 l 1,19,-1
 1024 2048 l 1,20,-1
 1024 2730 l 1,21,-1
 1365 2730 l 1,22,-1
 1365 0 l 1,23,-1
 1024 0 l 1,12,-1
1365 2730 m 1,24,-1
 1365 3072 l 1,25,-1
 1706 3072 l 1,26,-1
 1706 2730 l 1,27,-1
 1365 2730 l 1,24,-1
EndSplineSet
EndChar

StartChar: e
Encoding: 101 101 60
Width: 1706
GlyphClass: 1
Flags: W
LayerCount: 2
Fore
SplineSet
341 0 m 1,0,-1
 341 341 l 1,1,-1
 1024 341 l 1,2,-1
 1024 0 l 1,3,-1
 341 0 l 1,0,-1
0 341 m 1,4,-1
 0 1365 l 1,5,-1
 341 1365 l 1,6,-1
 341 1024 l 1,7,-1
 1024 1024 l 1,8,-1
 1024 682 l 1,9,-1
 341 682 l 1,10,-1
 341 341 l 1,11,-1
 0 341 l 1,4,-1
341 1365 m 1,12,-1
 341 1706 l 1,13,-1
 682 1706 l 1,14,-1
 682 1365 l 1,15,-1
 341 1365 l 1,12,-1
1024 1024 m 1,16,-1
 1024 1706 l 1,17,-1
 1365 1706 l 1,18,-1
 1365 1024 l 1,19,-1
 1024 1024 l 1,16,-1
682 1706 m 1,20,-1
 682 2048 l 1,21,-1
 1024 2048 l 1,22,-1
 1024 1706 l 1,23,-1
 682 1706 l 1,20,-1
EndSplineSet
EndChar

StartChar: f
Encoding: 102 102 61
Width: 2047
GlyphClass: 1
Flags: W
LayerCount: 2
Fore
SplineSet
341 0 m 1,0,-1
 341 1365 l 1,1,-1
 0 1365 l 1,2,-1
 0 1706 l 1,3,-1
 341 1706 l 1,4,-1
 341 2389 l 1,5,-1
 682 2389 l 1,6,-1
 682 2048 l 1,7,-1
 1365 2048 l 1,8,-1
 1365 1706 l 1,9,-1
 682 1706 l 1,10,-1
 682 0 l 1,11,-1
 341 0 l 1,0,-1
682 2389 m 1,12,-1
 682 3072 l 1,13,-1
 1024 3072 l 1,14,-1
 1024 2389 l 1,15,-1
 682 2389 l 1,12,-1
1365 2730 m 1,16,-1
 1365 3072 l 1,17,-1
 1706 3072 l 1,18,-1
 1706 2730 l 1,19,-1
 1365 2730 l 1,16,-1
1024 3072 m 1,20,-1
 1024 3413 l 1,21,-1
 1365 3413 l 1,22,-1
 1365 3072 l 1,23,-1
 1024 3072 l 1,20,-1
EndSplineSet
EndChar

StartChar: g
Encoding: 103 103 62
Width: 2047
GlyphClass: 1
Flags: W
LayerCount: 2
Fore
SplineSet
341 -682 m 1,0,-1
 341 -341 l 1,1,-1
 1024 -341 l 1,2,-1
 1024 -682 l 1,3,-1
 341 -682 l 1,0,-1
0 -341 m 1,4,-1
 0 0 l 1,5,-1
 341 0 l 1,6,-1
 341 -341 l 1,7,-1
 0 -341 l 1,4,-1
1024 -341 m 1,8,-1
 1024 0 l 1,9,-1
 682 0 l 1,10,-1
 682 341 l 1,11,-1
 1365 341 l 1,12,-1
 1365 -341 l 1,13,-1
 1024 -341 l 1,8,-1
341 341 m 1,14,-1
 341 1365 l 1,15,-1
 682 1365 l 1,16,-1
 682 341 l 1,17,-1
 341 341 l 1,14,-1
682 1365 m 1,18,-1
 682 1706 l 1,19,-1
 1024 1706 l 1,20,-1
 1024 1365 l 1,21,-1
 682 1365 l 1,18,-1
1365 341 m 1,22,-1
 1365 1706 l 1,23,-1
 1706 1706 l 1,24,-1
 1706 341 l 1,25,-1
 1365 341 l 1,22,-1
1024 1706 m 1,26,-1
 1024 2048 l 1,27,-1
 1365 2048 l 1,28,-1
 1365 1706 l 1,29,-1
 1024 1706 l 1,26,-1
EndSplineSet
EndChar

StartChar: h
Encoding: 104 104 63
Width: 1706
GlyphClass: 1
Flags: W
LayerCount: 2
Fore
SplineSet
1024 0 m 1,0,-1
 1024 1706 l 1,1,-1
 1365 1706 l 1,2,-1
 1365 0 l 1,3,-1
 1024 0 l 1,0,-1
682 1706 m 1,4,-1
 682 2048 l 1,5,-1
 1024 2048 l 1,6,-1
 1024 1706 l 1,7,-1
 682 1706 l 1,4,-1
0 0 m 1,8,-1
 0 2389 l 1,9,-1
 341 2389 l 1,10,-1
 341 1706 l 1,11,-1
 682 1706 l 1,12,-1
 682 1365 l 1,13,-1
 341 1365 l 1,14,-1
 341 0 l 1,15,-1
 0 0 l 1,8,-1
341 2389 m 1,16,-1
 341 3072 l 1,17,-1
 682 3072 l 1,18,-1
 682 2389 l 1,19,-1
 341 2389 l 1,16,-1
682 3072 m 1,20,-1
 682 3413 l 1,21,-1
 1024 3413 l 1,22,-1
 1024 3072 l 1,23,-1
 682 3072 l 1,20,-1
EndSplineSet
EndChar

StartChar: i
Encoding: 105 105 64
Width: 1365
GlyphClass: 1
Flags: W
LayerCount: 2
Fore
SplineSet
341 0 m 1,0,-1
 341 341 l 1,1,-1
 682 341 l 1,2,-1
 682 0 l 1,3,-1
 341 0 l 1,0,-1
682 341 m 1,4,-1
 682 682 l 1,5,-1
 1024 682 l 1,6,-1
 1024 341 l 1,7,-1
 682 341 l 1,4,-1
0 341 m 1,8,-1
 0 1365 l 1,9,-1
 341 1365 l 1,10,-1
 341 341 l 1,11,-1
 0 341 l 1,8,-1
341 1365 m 1,12,-1
 341 2048 l 1,13,-1
 682 2048 l 1,14,-1
 682 1365 l 1,15,-1
 341 1365 l 1,12,-1
341 2730 m 1,16,-1
 341 3072 l 1,17,-1
 1024 3072 l 1,18,-1
 1024 2730 l 1,19,-1
 341 2730 l 1,16,-1
EndSplineSet
EndChar

StartChar: j
Encoding: 106 106 65
Width: 1706
GlyphClass: 1
Flags: W
LayerCount: 2
Fore
SplineSet
341 -682 m 1,0,-1
 341 -341 l 1,1,-1
 682 -341 l 1,2,-1
 682 -682 l 1,3,-1
 341 -682 l 1,0,-1
0 -341 m 1,4,-1
 0 0 l 1,5,-1
 341 0 l 1,6,-1
 341 -341 l 1,7,-1
 0 -341 l 1,4,-1
682 -341 m 1,8,-1
 682 1024 l 1,9,-1
 1024 1024 l 1,10,-1
 1024 -341 l 1,11,-1
 682 -341 l 1,8,-1
1024 1024 m 1,12,-1
 1024 2048 l 1,13,-1
 1365 2048 l 1,14,-1
 1365 1024 l 1,15,-1
 1024 1024 l 1,12,-1
682 2730 m 1,16,-1
 682 3072 l 1,17,-1
 1365 3072 l 1,18,-1
 1365 2730 l 1,19,-1
 682 2730 l 1,16,-1
EndSplineSet
EndChar

StartChar: k
Encoding: 107 107 66
Width: 1706
GlyphClass: 1
Flags: W
LayerCount: 2
Fore
SplineSet
1024 0 m 1,0,-1
 1024 341 l 1,1,-1
 1365 341 l 1,2,-1
 1365 0 l 1,3,-1
 1024 0 l 1,0,-1
682 341 m 1,4,-1
 682 682 l 1,5,-1
 1024 682 l 1,6,-1
 1024 341 l 1,7,-1
 682 341 l 1,4,-1
682 1365 m 1,8,-1
 682 1706 l 1,9,-1
 1024 1706 l 1,10,-1
 1024 1365 l 1,11,-1
 682 1365 l 1,8,-1
1024 1706 m 1,12,-1
 1024 2048 l 1,13,-1
 1365 2048 l 1,14,-1
 1365 1706 l 1,15,-1
 1024 1706 l 1,12,-1
0 0 m 1,16,-1
 0 2389 l 1,17,-1
 341 2389 l 1,18,-1
 341 1365 l 1,19,-1
 682 1365 l 1,20,-1
 682 682 l 1,21,-1
 341 682 l 1,22,-1
 341 0 l 1,23,-1
 0 0 l 1,16,-1
341 2389 m 1,24,-1
 341 3072 l 1,25,-1
 682 3072 l 1,26,-1
 682 2389 l 1,27,-1
 341 2389 l 1,24,-1
682 3072 m 1,28,-1
 682 3413 l 1,29,-1
 1024 3413 l 1,30,-1
 1024 3072 l 1,31,-1
 682 3072 l 1,28,-1
EndSplineSet
EndChar

StartChar: l
Encoding: 108 108 67
Width: 1365
GlyphClass: 1
Flags: W
LayerCount: 2
Fore
SplineSet
0 0 m 1,0,-1
 0 2389 l 1,1,-1
 341 2389 l 1,2,-1
 341 0 l 1,3,-1
 0 0 l 1,0,-1
341 2389 m 1,4,-1
 341 3072 l 1,5,-1
 682 3072 l 1,6,-1
 682 2389 l 1,7,-1
 341 2389 l 1,4,-1
682 3072 m 1,8,-1
 682 3413 l 1,9,-1
 1024 3413 l 1,10,-1
 1024 3072 l 1,11,-1
 682 3072 l 1,8,-1
EndSplineSet
EndChar

StartChar: m
Encoding: 109 109 68
Width: 2389
GlyphClass: 1
Flags: W
LayerCount: 2
Fore
SplineSet
1365 0 m 1,0,-1
 1365 341 l 1,1,-1
 1706 341 l 1,2,-1
 1706 0 l 1,3,-1
 1365 0 l 1,0,-1
682 0 m 1,4,-1
 682 682 l 1,5,-1
 1024 682 l 1,6,-1
 1024 0 l 1,7,-1
 682 0 l 1,4,-1
0 0 m 1,8,-1
 0 1024 l 1,9,-1
 341 1024 l 1,10,-1
 341 0 l 1,11,-1
 0 0 l 1,8,-1
341 1024 m 1,12,-1
 341 1706 l 1,13,-1
 682 1706 l 1,14,-1
 682 1024 l 1,15,-1
 341 1024 l 1,12,-1
1024 682 m 1,16,-1
 1024 1706 l 1,17,-1
 1365 1706 l 1,18,-1
 1365 682 l 1,19,-1
 1024 682 l 1,16,-1
1706 341 m 1,20,-1
 1706 1706 l 1,21,-1
 2048 1706 l 1,22,-1
 2048 341 l 1,23,-1
 1706 341 l 1,20,-1
0 1706 m 1,24,-1
 0 2048 l 1,25,-1
 341 2048 l 1,26,-1
 341 1706 l 1,27,-1
 0 1706 l 1,24,-1
682 1706 m 1,28,-1
 682 2048 l 1,29,-1
 1024 2048 l 1,30,-1
 1024 1706 l 1,31,-1
 682 1706 l 1,28,-1
1365 1706 m 1,32,-1
 1365 2048 l 1,33,-1
 1706 2048 l 1,34,-1
 1706 1706 l 1,35,-1
 1365 1706 l 1,32,-1
EndSplineSet
EndChar

StartChar: n
Encoding: 110 110 69
Width: 1706
GlyphClass: 1
Flags: W
LayerCount: 2
Fore
SplineSet
682 0 m 1,0,-1
 682 682 l 1,1,-1
 1024 682 l 1,2,-1
 1024 0 l 1,3,-1
 682 0 l 1,0,-1
0 0 m 1,4,-1
 0 1024 l 1,5,-1
 341 1024 l 1,6,-1
 341 0 l 1,7,-1
 0 0 l 1,4,-1
341 1024 m 1,8,-1
 341 1706 l 1,9,-1
 682 1706 l 1,10,-1
 682 1024 l 1,11,-1
 341 1024 l 1,8,-1
1024 682 m 1,12,-1
 1024 1706 l 1,13,-1
 1365 1706 l 1,14,-1
 1365 682 l 1,15,-1
 1024 682 l 1,12,-1
0 1706 m 1,16,-1
 0 2048 l 1,17,-1
 341 2048 l 1,18,-1
 341 1706 l 1,19,-1
 0 1706 l 1,16,-1
682 1706 m 1,20,-1
 682 2048 l 1,21,-1
 1024 2048 l 1,22,-1
 1024 1706 l 1,23,-1
 682 1706 l 1,20,-1
EndSplineSet
EndChar

StartChar: o
Encoding: 111 111 70
Width: 1706
GlyphClass: 1
Flags: W
LayerCount: 2
Fore
SplineSet
341 0 m 1,0,-1
 341 341 l 1,1,-1
 682 341 l 1,2,-1
 682 0 l 1,3,-1
 341 0 l 1,0,-1
682 341 m 1,4,-1
 682 682 l 1,5,-1
 1024 682 l 1,6,-1
 1024 341 l 1,7,-1
 682 341 l 1,4,-1
0 341 m 1,8,-1
 0 1365 l 1,9,-1
 341 1365 l 1,10,-1
 341 341 l 1,11,-1
 0 341 l 1,8,-1
341 1365 m 1,12,-1
 341 1706 l 1,13,-1
 682 1706 l 1,14,-1
 682 1365 l 1,15,-1
 341 1365 l 1,12,-1
1024 682 m 1,16,-1
 1024 1706 l 1,17,-1
 1365 1706 l 1,18,-1
 1365 682 l 1,19,-1
 1024 682 l 1,16,-1
682 1706 m 1,20,-1
 682 2048 l 1,21,-1
 1024 2048 l 1,22,-1
 1024 1706 l 1,23,-1
 682 1706 l 1,20,-1
EndSplineSet
EndChar

StartChar: p
Encoding: 112 112 71
Width: 1706
GlyphClass: 1
Flags: W
LayerCount: 2
Fore
SplineSet
682 341 m 1,0,-1
 682 682 l 1,1,-1
 1024 682 l 1,2,-1
 1024 341 l 1,3,-1
 682 341 l 1,0,-1
0 -682 m 1,4,-1
 0 1365 l 1,5,-1
 341 1365 l 1,6,-1
 341 341 l 1,7,-1
 682 341 l 1,8,-1
 682 0 l 1,9,-1
 341 0 l 1,10,-1
 341 -682 l 1,11,-1
 0 -682 l 1,4,-1
341 1365 m 1,12,-1
 341 1706 l 1,13,-1
 682 1706 l 1,14,-1
 682 1365 l 1,15,-1
 341 1365 l 1,12,-1
1024 682 m 1,16,-1
 1024 1706 l 1,17,-1
 1365 1706 l 1,18,-1
 1365 682 l 1,19,-1
 1024 682 l 1,16,-1
682 1706 m 1,20,-1
 682 2048 l 1,21,-1
 1024 2048 l 1,22,-1
 1024 1706 l 1,23,-1
 682 1706 l 1,20,-1
EndSplineSet
EndChar

StartChar: q
Encoding: 113 113 72
Width: 2047
GlyphClass: 1
Flags: W
LayerCount: 2
Fore
SplineSet
1365 -341 m 1,0,-1
 1365 0 l 1,1,-1
 1706 0 l 1,2,-1
 1706 -341 l 1,3,-1
 1365 -341 l 1,0,-1
682 -682 m 1,4,-1
 682 0 l 1,5,-1
 341 0 l 1,6,-1
 341 341 l 1,7,-1
 682 341 l 1,8,-1
 682 682 l 1,9,-1
 1024 682 l 1,10,-1
 1024 -341 l 1,11,-1
 1365 -341 l 1,12,-1
 1365 -682 l 1,13,-1
 682 -682 l 1,4,-1
0 341 m 1,14,-1
 0 1365 l 1,15,-1
 341 1365 l 1,16,-1
 341 341 l 1,17,-1
 0 341 l 1,14,-1
341 1365 m 1,18,-1
 341 1706 l 1,19,-1
 682 1706 l 1,20,-1
 682 1365 l 1,21,-1
 341 1365 l 1,18,-1
1024 682 m 1,22,-1
 1024 1706 l 1,23,-1
 682 1706 l 1,24,-1
 682 2048 l 1,25,-1
 1365 2048 l 1,26,-1
 1365 682 l 1,27,-1
 1024 682 l 1,22,-1
EndSplineSet
EndChar

StartChar: r
Encoding: 114 114 73
Width: 1706
GlyphClass: 1
Flags: W
LayerCount: 2
Fore
SplineSet
0 0 m 1,0,-1
 0 1706 l 1,1,-1
 341 1706 l 1,2,-1
 341 1365 l 1,3,-1
 682 1365 l 1,4,-1
 682 1024 l 1,5,-1
 341 1024 l 1,6,-1
 341 0 l 1,7,-1
 0 0 l 1,0,-1
682 1365 m 1,8,-1
 682 1706 l 1,9,-1
 1365 1706 l 1,10,-1
 1365 1365 l 1,11,-1
 682 1365 l 1,8,-1
EndSplineSet
EndChar

StartChar: s
Encoding: 115 115 74
Width: 1706
GlyphClass: 1
Flags: W
LayerCount: 2
Fore
SplineSet
0 0 m 1,0,-1
 0 341 l 1,1,-1
 1024 341 l 1,2,-1
 1024 0 l 1,3,-1
 0 0 l 1,0,-1
1024 341 m 1,4,-1
 1024 682 l 1,5,-1
 1365 682 l 1,6,-1
 1365 341 l 1,7,-1
 1024 341 l 1,4,-1
341 682 m 1,8,-1
 341 1024 l 1,9,-1
 1024 1024 l 1,10,-1
 1024 682 l 1,11,-1
 341 682 l 1,8,-1
0 1024 m 1,12,-1
 0 1365 l 1,13,-1
 341 1365 l 1,14,-1
 341 1024 l 1,15,-1
 0 1024 l 1,12,-1
341 1365 m 1,16,-1
 341 1706 l 1,17,-1
 682 1706 l 1,18,-1
 682 1365 l 1,19,-1
 341 1365 l 1,16,-1
682 1706 m 1,20,-1
 682 2048 l 1,21,-1
 1365 2048 l 1,22,-1
 1365 1706 l 1,23,-1
 682 1706 l 1,20,-1
EndSplineSet
EndChar

StartChar: t
Encoding: 116 116 75
Width: 1706
GlyphClass: 1
Flags: W
LayerCount: 2
Fore
SplineSet
682 0 m 1,0,-1
 682 341 l 1,1,-1
 1024 341 l 1,2,-1
 1024 0 l 1,3,-1
 682 0 l 1,0,-1
1024 341 m 1,4,-1
 1024 682 l 1,5,-1
 1365 682 l 1,6,-1
 1365 341 l 1,7,-1
 1024 341 l 1,4,-1
341 341 m 1,8,-1
 341 1365 l 1,9,-1
 0 1365 l 1,10,-1
 0 1706 l 1,11,-1
 341 1706 l 1,12,-1
 341 2730 l 1,13,-1
 682 2730 l 1,14,-1
 682 2048 l 1,15,-1
 1024 2048 l 1,16,-1
 1024 1706 l 1,17,-1
 682 1706 l 1,18,-1
 682 341 l 1,19,-1
 341 341 l 1,8,-1
682 2730 m 1,20,-1
 682 3413 l 1,21,-1
 1024 3413 l 1,22,-1
 1024 2730 l 1,23,-1
 682 2730 l 1,20,-1
EndSplineSet
EndChar

StartChar: u
Encoding: 117 117 76
Width: 1706
GlyphClass: 1
Flags: W
LayerCount: 2
Fore
SplineSet
341 0 m 1,0,-1
 341 341 l 1,1,-1
 682 341 l 1,2,-1
 682 0 l 1,3,-1
 341 0 l 1,0,-1
0 341 m 1,4,-1
 0 1365 l 1,5,-1
 341 1365 l 1,6,-1
 341 341 l 1,7,-1
 0 341 l 1,4,-1
341 1365 m 1,8,-1
 341 2048 l 1,9,-1
 682 2048 l 1,10,-1
 682 1365 l 1,11,-1
 341 1365 l 1,8,-1
1024 0 m 1,12,-1
 1024 341 l 1,13,-1
 682 341 l 1,14,-1
 682 682 l 1,15,-1
 1024 682 l 1,16,-1
 1024 2048 l 1,17,-1
 1365 2048 l 1,18,-1
 1365 0 l 1,19,-1
 1024 0 l 1,12,-1
EndSplineSet
EndChar

StartChar: v
Encoding: 118 118 77
Width: 1706
GlyphClass: 1
Flags: W
LayerCount: 2
Fore
SplineSet
682 682 m 1,0,-1
 682 1365 l 1,1,-1
 1024 1365 l 1,2,-1
 1024 682 l 1,3,-1
 682 682 l 1,0,-1
0 0 m 1,4,-1
 0 2048 l 1,5,-1
 341 2048 l 1,6,-1
 341 682 l 1,7,-1
 682 682 l 1,8,-1
 682 341 l 1,9,-1
 341 341 l 1,10,-1
 341 0 l 1,11,-1
 0 0 l 1,4,-1
1024 1365 m 1,12,-1
 1024 2048 l 1,13,-1
 1365 2048 l 1,14,-1
 1365 1365 l 1,15,-1
 1024 1365 l 1,12,-1
EndSplineSet
EndChar

StartChar: w
Encoding: 119 119 78
Width: 2389
GlyphClass: 1
Flags: W
LayerCount: 2
Fore
SplineSet
341 0 m 1,0,-1
 341 341 l 1,1,-1
 682 341 l 1,2,-1
 682 0 l 1,3,-1
 341 0 l 1,0,-1
1024 0 m 1,4,-1
 1024 341 l 1,5,-1
 1706 341 l 1,6,-1
 1706 0 l 1,7,-1
 1024 0 l 1,4,-1
682 341 m 1,8,-1
 682 1024 l 1,9,-1
 1024 1024 l 1,10,-1
 1024 341 l 1,11,-1
 682 341 l 1,8,-1
0 341 m 1,12,-1
 0 1365 l 1,13,-1
 341 1365 l 1,14,-1
 341 341 l 1,15,-1
 0 341 l 1,12,-1
341 1365 m 1,16,-1
 341 2048 l 1,17,-1
 682 2048 l 1,18,-1
 682 1365 l 1,19,-1
 341 1365 l 1,16,-1
1024 1024 m 1,20,-1
 1024 2048 l 1,21,-1
 1365 2048 l 1,22,-1
 1365 1024 l 1,23,-1
 1024 1024 l 1,20,-1
1706 341 m 1,24,-1
 1706 2048 l 1,25,-1
 2048 2048 l 1,26,-1
 2048 341 l 1,27,-1
 1706 341 l 1,24,-1
EndSplineSet
EndChar

StartChar: x
Encoding: 120 120 79
Width: 2047
GlyphClass: 1
Flags: W
LayerCount: 2
Fore
SplineSet
1024 0 m 1,0,-1
 1024 341 l 1,1,-1
 1706 341 l 1,2,-1
 1706 0 l 1,3,-1
 1024 0 l 1,0,-1
0 0 m 1,4,-1
 0 682 l 1,5,-1
 341 682 l 1,6,-1
 341 0 l 1,7,-1
 0 0 l 1,4,-1
682 341 m 1,8,-1
 682 682 l 1,9,-1
 341 682 l 1,10,-1
 341 1024 l 1,11,-1
 682 1024 l 1,12,-1
 682 1365 l 1,13,-1
 1024 1365 l 1,14,-1
 1024 341 l 1,15,-1
 682 341 l 1,8,-1
1024 1365 m 1,16,-1
 1024 1706 l 1,17,-1
 1365 1706 l 1,18,-1
 1365 1365 l 1,19,-1
 1024 1365 l 1,16,-1
341 1365 m 1,20,-1
 341 1706 l 1,21,-1
 0 1706 l 1,22,-1
 0 2048 l 1,23,-1
 682 2048 l 1,24,-1
 682 1365 l 1,25,-1
 341 1365 l 1,20,-1
1365 1706 m 1,26,-1
 1365 2048 l 1,27,-1
 1706 2048 l 1,28,-1
 1706 1706 l 1,29,-1
 1365 1706 l 1,26,-1
EndSplineSet
EndChar

StartChar: y
Encoding: 121 121 80
Width: 1706
GlyphClass: 1
Flags: W
LayerCount: 2
Fore
SplineSet
0 -682 m 1,0,-1
 0 -341 l 1,1,-1
 682 -341 l 1,2,-1
 682 -682 l 1,3,-1
 0 -682 l 1,0,-1
682 -341 m 1,4,-1
 682 0 l 1,5,-1
 341 0 l 1,6,-1
 341 341 l 1,7,-1
 1024 341 l 1,8,-1
 1024 -341 l 1,9,-1
 682 -341 l 1,4,-1
0 341 m 1,10,-1
 0 1024 l 1,11,-1
 341 1024 l 1,12,-1
 341 341 l 1,13,-1
 0 341 l 1,10,-1
341 1024 m 1,14,-1
 341 1706 l 1,15,-1
 682 1706 l 1,16,-1
 682 1024 l 1,17,-1
 341 1024 l 1,14,-1
0 1706 m 1,18,-1
 0 2048 l 1,19,-1
 341 2048 l 1,20,-1
 341 1706 l 1,21,-1
 0 1706 l 1,18,-1
1024 341 m 1,22,-1
 1024 2048 l 1,23,-1
 1365 2048 l 1,24,-1
 1365 341 l 1,25,-1
 1024 341 l 1,22,-1
EndSplineSet
EndChar

StartChar: z
Encoding: 122 122 81
Width: 1706
GlyphClass: 1
Flags: W
LayerCount: 2
Fore
SplineSet
0 0 m 1,0,-1
 0 682 l 1,1,-1
 341 682 l 1,2,-1
 341 341 l 1,3,-1
 1024 341 l 1,4,-1
 1024 0 l 1,5,-1
 0 0 l 1,0,-1
1024 341 m 1,6,-1
 1024 682 l 1,7,-1
 1365 682 l 1,8,-1
 1365 341 l 1,9,-1
 1024 341 l 1,6,-1
341 682 m 1,10,-1
 341 1024 l 1,11,-1
 682 1024 l 1,12,-1
 682 682 l 1,13,-1
 341 682 l 1,10,-1
682 1024 m 1,14,-1
 682 1365 l 1,15,-1
 1024 1365 l 1,16,-1
 1024 1024 l 1,17,-1
 682 1024 l 1,14,-1
1024 1365 m 1,18,-1
 1024 1706 l 1,19,-1
 1365 1706 l 1,20,-1
 1365 1365 l 1,21,-1
 1024 1365 l 1,18,-1
341 1706 m 1,22,-1
 341 2048 l 1,23,-1
 1024 2048 l 1,24,-1
 1024 1706 l 1,25,-1
 341 1706 l 1,22,-1
EndSplineSet
EndChar

StartChar: asciitilde
Encoding: 126 126 82
Width: 2730
GlyphClass: 1
Flags: W
LayerCount: 2
Fore
SplineSet
1365 1024 m 1,0,-1
 1365 1365 l 1,1,-1
 2048 1365 l 1,2,-1
 2048 1024 l 1,3,-1
 1365 1024 l 1,0,-1
0 1365 m 1,4,-1
 0 1706 l 1,5,-1
 341 1706 l 1,6,-1
 341 1365 l 1,7,-1
 0 1365 l 1,4,-1
1024 1365 m 1,8,-1
 1024 1706 l 1,9,-1
 1365 1706 l 1,10,-1
 1365 1365 l 1,11,-1
 1024 1365 l 1,8,-1
2048 1365 m 1,12,-1
 2048 1706 l 1,13,-1
 2389 1706 l 1,14,-1
 2389 1365 l 1,15,-1
 2048 1365 l 1,12,-1
341 1706 m 1,16,-1
 341 2048 l 1,17,-1
 1024 2048 l 1,18,-1
 1024 1706 l 1,19,-1
 341 1706 l 1,16,-1
EndSplineSet
EndChar

StartChar: quoteright
Encoding: 8217 8217 83
Width: 1365
GlyphClass: 1
Flags: W
LayerCount: 2
Fore
SplineSet
0 1706 m 1,0,-1
 0 2048 l 1,1,-1
 341 2048 l 1,2,-1
 341 1706 l 1,3,-1
 0 1706 l 1,0,-1
341 2048 m 1,4,-1
 341 2730 l 1,5,-1
 1024 2730 l 1,6,-1
 1024 2048 l 1,7,-1
 341 2048 l 1,4,-1
EndSplineSet
EndChar

StartChar: quotedblleft
Encoding: 8220 8220 84
Width: 2047
GlyphClass: 1
Flags: W
LayerCount: 2
Fore
SplineSet
341 2389 m 1,0,-1
 341 2730 l 1,1,-1
 0 2730 l 1,2,-1
 0 3754 l 1,3,-1
 341 3754 l 1,4,-1
 341 3413 l 1,5,-1
 682 3413 l 1,6,-1
 682 2389 l 1,7,-1
 341 2389 l 1,0,-1
1365 2389 m 1,8,-1
 1365 2730 l 1,9,-1
 1024 2730 l 1,10,-1
 1024 3754 l 1,11,-1
 1365 3754 l 1,12,-1
 1365 3413 l 1,13,-1
 1706 3413 l 1,14,-1
 1706 2389 l 1,15,-1
 1365 2389 l 1,8,-1
EndSplineSet
EndChar

StartChar: quotedblright
Encoding: 8221 8221 85
Width: 2047
GlyphClass: 1
Flags: W
LayerCount: 2
Fore
SplineSet
0 2389 m 1,0,-1
 0 3413 l 1,1,-1
 341 3413 l 1,2,-1
 341 3754 l 1,3,-1
 682 3754 l 1,4,-1
 682 2730 l 1,5,-1
 341 2730 l 1,6,-1
 341 2389 l 1,7,-1
 0 2389 l 1,0,-1
1024 2389 m 1,8,-1
 1024 3413 l 1,9,-1
 1365 3413 l 1,10,-1
 1365 3754 l 1,11,-1
 1706 3754 l 1,12,-1
 1706 2730 l 1,13,-1
 1365 2730 l 1,14,-1
 1365 2389 l 1,15,-1
 1024 2389 l 1,8,-1
EndSplineSet
EndChar
